<svg class="logo logo--crabtree-evelyn" preserveAspectRatio="xMinYMin slice" viewBox="0 0 347 119" fill="none" xmlns="http://www.w3.org/2000/svg"><path fill="currentColor" clip-rule="evenodd" d="M15.567 6.392c5.812 0 7.527 4.99 7.432 8.833h6.655C29.654 8.554 25.653 0 15.567 0 7.121 0 0 5.777 0 22.964 0 40.15 7.12 45.925 15.567 45.925c10.086 0 14.087-8.554 14.087-15.225h-6.655c.095 3.843-1.62 8.833-7.432 8.833-7.708 0-8.766-9.232-8.766-16.569 0-7.34 1.058-16.572 8.766-16.572zM72.342 22.252c1.75-2.498 2.257-5.456 2.257-8.053C74.6 8.514 71.267.915 62.161.915L54.62.918V.915h-6.633v44.099h6.633V27.313l6.956.025 6.687 17.676H75.1l-7.568-18.875c1.833-.817 3.58-2.089 4.81-3.887zM61.35 22.06l-6.731.035V6.596s5.71.026 6.658.026c6.277 0 7.25 5.13 7.25 7.634 0 3.824-1.93 7.803-7.177 7.803zM103.19.913l-12.308 44.1h6.703l2.479-9.008h13.684l2.41 9.008h6.801L110.533.913h-7.343zm-1.899 29.756l5.59-22.863 5.589 22.863h-11.179zM183.687 6.913h10.643v38.1h6.636v-38.1h10.644V.915h-27.923v5.998zM276.639 45.013h24.869v-5.834h-18.233V25.27h15.583v-5.834h-15.583V6.766h18.233V.915h-24.869v44.099zM321.31 45.013h24.87v-5.834h-18.234V25.27h15.583v-5.834h-15.583V6.766h18.234V.915h-24.87v44.099zM99.822 117.984h24.87v-5.833h-18.234v-13.91h15.583v-5.834h-15.583V79.738h18.234v-5.853h-24.87v44.099zM156.417 107.685l-.143.647h-.092l-.174-.647-8.944-33.801-1.437-.01h-5.339l12.464 44.058 6.981.051 12.372-44.099h-6.795l-8.893 33.801zM189.031 117.984h24.87v-5.833h-18.234v-13.91h15.584v-5.834h-15.584V79.738h18.234v-5.853h-24.87v44.099zM240.793 73.885h-6.636v44.099h23.113v-5.834h-16.477V73.885zM282.652 93.869l-.133.63h-.105l-.174-.63-8.783-19.984h-6.975l12.571 28.005.067.359v15.668h6.652v-15.668l.066-.359 12.232-28.005h-7.023l-8.395 19.984zM338.88 73.851v32.004h-.118l-.101-.381-17.844-31.623h-6.519v44.1h6.519V85.947h.067l.152.384 17.875 31.62h6.484v-44.1h-6.515zM254.306 22.252c1.751-2.498 2.258-5.456 2.258-8.053 0-5.685-3.332-13.284-12.438-13.284l-7.543.003V.915h-6.633v44.099h6.633V27.313l6.956.025 6.687 17.676h6.839l-7.568-18.875c1.832-.817 3.579-2.089 4.809-3.887zm-10.992-.193l-6.731.035V6.596s5.71.026 6.658.026c6.278 0 7.251 5.13 7.251 7.634 0 3.824-1.931 7.803-7.178 7.803zM162.432 21.853c3.186-2.013 4.353-6.094 4.353-9.321 0-6.25-3.633-11.576-12.438-11.576L140.771.912v44.102l14.835.003c5.352 0 12.32-2.97 12.32-13.208 0-4.03-1.75-7.927-5.494-9.956zM147.407 6.75l6.154-.025c5.253 0 7.159 2.735 7.159 6.493 0 3.582-1.89 6.439-6.642 6.49h-6.671V6.749zm6.414 32.355l-6.414-.016V24.89h6.106c4.769 0 8.003 1.589 8.003 6.865 0 2.752-1.37 7.35-7.695 7.35zM38.71 98.677h-7.943c-1.677 1.725-3.563 3.671-5.345 5.507L9.756 88.264a5.557 5.557 0 0 1-1.598-3.924c0-3.06 2.451-5.552 5.463-5.552s5.463 2.492 5.463 5.552h5.653c0-6.23-4.987-11.3-11.116-11.3-6.132 0-11.12 5.07-11.12 11.3 0 3.018 1.155 5.856 3.257 7.993l1.56 1.585c-.936.938-2.01 2.023-2.841 2.875-2.387 2.458-3.7 5.711-3.7 9.164C.777 113.15 6.532 119 13.608 119c3.427 0 6.649-1.357 9.074-3.82.384-.394 1.414-1.453 2.765-2.838l5.37 5.46h8l-9.397-9.55c3.484-3.592 7.358-7.587 9.29-9.575zM18.68 111.115a7.08 7.08 0 0 1-5.073 2.137c-3.957 0-7.178-3.275-7.178-7.295a7.32 7.32 0 0 1 2.07-5.124c.822-.847 1.893-1.921 2.816-2.85l10.13 10.294a988.114 988.114 0 0 1-2.765 2.838z"/></svg>
