<svg class="logo logo--direct-doors" aria-hidden="true" xmlns="http://www.w3.org/2000/svg" preserveAspectRatio="xMinYMin slice" viewBox="0 0 734.1 68.3"><path fill="currentColor" d="M10.8 0h30.8C47.7 0 52.5.8 56 2.5s6.2 4 8.1 7.1c1.9 3.1 3.1 6.7 3.6 10.8.4 4.1.3 8.4-.4 13-1.2 7.2-2.9 12.7-5.1 16.7-2.3 4-5.1 7.3-8.4 9.9-3.3 2.7-6.7 4.5-10.2 5.3-4.7 1.2-9 1.8-12.7 1.8H0L10.8 0zm18.3 15.2l-5.9 36.7h5.1c4.3 0 7.5-.5 9.5-1.4 2-1 3.7-2.6 5.1-5 1.4-2.4 2.6-6.3 3.4-11.7 1.1-7.1.8-12-1.1-14.6-1.9-2.6-5.5-3.9-10.9-3.9h-5.2zM83 0h18.6l-2 12.7H80.9L83 0zm-3 18.5h18.6l-7.8 48.7H72.2L80 18.5zm30.7 0h17.5l-1.3 8c2.2-3.5 4.4-5.8 6.3-7.1 2-1.3 4.3-1.9 6.9-1.9 2.7 0 5.6.9 8.6 2.6l-7.9 13.3c-2.1-.9-3.7-1.4-5-1.4-2.4 0-4.5 1-6.2 3-2.4 2.8-4.2 8.2-5.5 15.9l-2.6 16.3h-18.7l7.9-48.7zm92.4 29h-37.4c-.1 3 .3 5.2 1.4 6.7 1.5 2.1 3.6 3.2 6.5 3.2 1.8 0 3.6-.5 5.4-1.4 1.1-.6 2.3-1.6 3.7-3.1l18.1 1.7c-3.6 4.9-7.6 8.4-11.9 10.5-4.3 2.1-10.2 3.2-17.6 3.2-6.4 0-11.4-.9-14.8-2.7-3.4-1.8-6-4.7-7.8-8.7-1.8-4-2.3-8.6-1.4-14 1.2-7.6 4.7-13.8 10.3-18.5 5.6-4.7 12.7-7.1 21.3-7.1 7 0 12.3 1.1 16 3.2 3.7 2.1 6.3 5.2 7.7 9.2 1.5 4 1.7 9.2.6 15.6l-.1 2.2zm-17.6-9c.2-3.6-.3-6.2-1.7-7.7-1.3-1.6-3.3-2.3-5.8-2.3-3 0-5.5 1.2-7.7 3.5-1.4 1.5-2.4 3.6-3.2 6.6h18.4zm62.3 9.6l17.4 2c-1.6 3.7-3.7 6.9-6.4 9.6-2.7 2.7-5.9 4.8-9.6 6.3-3.7 1.5-8.2 2.2-13.6 2.2-5.2 0-9.4-.5-12.7-1.4-3.3-1-6-2.5-8.1-4.7-2.1-2.2-3.7-4.7-4.6-7.6-.9-2.9-1-6.7-.2-11.5.8-5 2.3-9.2 4.6-12.5 1.6-2.4 3.7-4.6 6.2-6.6 2.5-1.9 4.9-3.4 7.4-4.3 3.9-1.5 8.7-2.2 14.3-2.2 7.9 0 13.8 1.4 17.5 4.3 3.7 2.8 6 7 6.8 12.5l-17.9 2.3c-.2-2.1-1-3.6-2.2-4.7-1.3-1.1-3.1-1.6-5.6-1.6-3.1 0-5.8 1.1-8 3.3-2.3 2.2-3.8 5.6-4.5 10-.6 4-.2 7 1.4 9.1 1.6 2.1 3.8 3.1 6.7 3.1 2.4 0 4.6-.6 6.5-1.9 1.8-1.2 3.4-3.1 4.6-5.7zM304.4 0l-3 18.5h10.3l-2.2 13.7h-10.3l-2.8 17.2c-.3 2.1-.4 3.4-.1 4.1.4 1 1.4 1.6 3 1.6 1.4 0 3.4-.4 6-1.2l-.7 12.9c-4.8 1-9.2 1.5-13.2 1.5-4.6 0-8-.6-10-1.8-2-1.2-3.3-3-4-5.4-.7-2.4-.6-6.4.3-11.8l2.8-17.1h-6.9l2.2-13.7h6.9l1.4-8.9L304.4 0zM330.3 0h30.8c6.1 0 11 .8 14.7 2.5 3.7 1.7 6.8 4 9.3 7.1 2.4 3.1 4.2 6.7 5.3 10.8 1.1 4.1 1.6 8.4 1.6 13 0 7.2-.8 12.7-2.5 16.7-1.6 4-3.9 7.3-6.8 9.9-2.9 2.7-6 4.5-9.3 5.3-4.6 1.2-8.7 1.8-12.4 1.8h-30.8V0zM351 15.2v36.7h5.1c4.3 0 7.4-.5 9.3-1.4 1.8-1 3.3-2.6 4.3-5s1.6-6.3 1.6-11.7c0-7.1-1.2-12-3.5-14.6-2.3-2.6-6.2-3.9-11.5-3.9H351zM399.5 43c0-7.4 2.5-13.5 7.5-18.3 5-4.8 11.8-7.2 20.3-7.2 9.7 0 17.1 2.8 22.1 8.5 4 4.6 6 10.2 6 16.8 0 7.5-2.5 13.6-7.4 18.4-5 4.8-11.8 7.2-20.6 7.2-7.8 0-14.1-2-19-6-6-5-8.9-11.5-8.9-19.4zm18.7-.1c0 4.3.9 7.5 2.6 9.6 1.8 2.1 4 3.1 6.6 3.1 2.7 0 4.9-1 6.6-3.1 1.7-2 2.6-5.3 2.6-9.8 0-4.2-.9-7.4-2.6-9.4-1.7-2.1-3.9-3.1-6.5-3.1-2.7 0-5 1-6.7 3.1-1.7 2.2-2.6 5.4-2.6 9.6zm43.9.1c0-7.4 2.5-13.5 7.5-18.3 5-4.8 11.8-7.2 20.3-7.2 9.7 0 17.1 2.8 22.1 8.5 4 4.6 6 10.2 6 16.8 0 7.5-2.5 13.6-7.4 18.4-5 4.8-11.8 7.2-20.6 7.2-7.8 0-14.1-2-19-6-6-5-8.9-11.5-8.9-19.4zm18.6-.1c0 4.3.9 7.5 2.6 9.6 1.8 2.1 4 3.1 6.6 3.1 2.7 0 4.9-1 6.6-3.1 1.7-2 2.6-5.3 2.6-9.8 0-4.2-.9-7.4-2.6-9.4-1.7-2.1-3.9-3.1-6.5-3.1-2.7 0-5 1-6.7 3.1-1.7 2.2-2.6 5.4-2.6 9.6zm46.4-24.4h17.5v8c1.7-3.5 3.4-5.8 5.2-7.1 1.8-1.3 4-1.9 6.6-1.9 2.7 0 5.8.9 9 2.6l-5.8 13.3c-2.2-.9-3.9-1.4-5.2-1.4-2.4 0-4.3 1-5.7 3-1.9 2.8-2.9 8.2-2.9 15.9v16.3h-18.7V18.5zm43.2 35.1l18.5-1.7c.8 2.2 1.8 3.8 3.2 4.7 1.4.9 3.2 1.4 5.5 1.4 2.5 0 4.4-.5 5.8-1.6 1.1-.8 1.6-1.8 1.6-3 0-1.3-.7-2.4-2.1-3.1-1-.5-3.7-1.2-8-1.9-6.5-1.1-11-2.2-13.5-3.1-2.5-1-4.6-2.6-6.4-4.9-1.7-2.3-2.6-4.9-2.6-7.8 0-3.2.9-6 2.8-8.3 1.9-2.3 4.4-4.1 7.7-5.2 3.3-1.1 7.7-1.7 13.1-1.7 5.8 0 10.1.4 12.9 1.3 2.8.9 5.1 2.3 6.9 4.1 1.8 1.9 3.4 4.4 4.6 7.6l-17.7 1.7c-.5-1.6-1.2-2.7-2.3-3.4-1.5-1-3.2-1.5-5.3-1.5-2.1 0-3.6.4-4.6 1.1-1 .7-1.4 1.7-1.4 2.7 0 1.2.6 2.1 1.8 2.7 1.2.6 3.9 1.2 8 1.6 6.2.7 10.8 1.7 13.8 2.9 3 1.3 5.3 3 6.9 5.4 1.6 2.3 2.4 4.9 2.4 7.6 0 2.8-.8 5.5-2.5 8.2-1.7 2.7-4.4 4.8-8 6.3-3.6 1.6-8.6 2.4-14.9 2.4-8.9 0-15.2-1.3-19-3.8-3.8-2.4-6.2-6-7.2-10.7zm60.9 13.2l.6-6.1h-6.5l-.6 6.1zm12.3-12.1c.8-.9 1.9-1.3 3.1-1.3 1 0 1.7.2 2.3.6.5.4.8.9 1 1.6l5.8-.8c-.4-1.7-1.3-3-2.5-4-1.3-1-3.4-1.5-6.2-1.5-2 0-3.7.3-5 .8-.8.3-1.7.8-2.5 1.5s-1.5 1.4-2 2.3c-.7 1.2-1.2 2.6-1.3 4.4-.2 1.7-.1 3 .3 4s1 1.9 1.8 2.6c.8.7 1.8 1.3 2.9 1.6 1.2.3 2.7.5 4.5.5 1.9 0 3.5-.3 4.7-.8 1.3-.5 2.3-1.3 3.2-2.2.8-.8 1.4-1.8 1.9-3l-5.7-.7c-.4.9-.9 1.6-1.6 2-.7.5-1.5.7-2.5.7-1.2 0-2.1-.4-2.8-1.2-.7-.8-.9-2-.8-3.5.1-1.5.6-2.8 1.4-3.6zm25.7-5.3c-3 0-5.5.9-7.4 2.5-1.9 1.7-3 3.8-3.3 6.4-.3 2.8.5 5 2.4 6.7 1.5 1.4 3.7 2.1 6.4 2.1 3.1 0 5.6-.8 7.5-2.5 1.9-1.7 3-3.8 3.2-6.4.2-2.3-.3-4.3-1.5-5.8-1.4-2-3.9-3-7.3-3zm2.8 8.9c-.2 1.7-.6 3-1.4 3.8-.8.8-1.7 1.2-2.7 1.2-1.1 0-1.9-.4-2.5-1.3-.6-.8-.8-2.1-.7-3.7.2-1.6.6-2.8 1.4-3.6.8-.8 1.7-1.2 2.8-1.2 1 0 1.9.4 2.5 1.3.6.7.8 1.9.6 3.5zm34.5-8.9c-1.2 0-2.3.2-3.2.6-.9.4-1.9 1.2-3 2.3l-.3.3-.2-.4c-.4-.9-1-1.6-1.7-2.1s-1.7-.7-3.1-.7c-1.2 0-2.3.2-3.3.6-.9.4-1.9 1.2-2.9 2.2l-.7.7.3-3.2h-5.6l-1.7 16.9h6.1l.9-8.7c.1-1.4.5-2.4 1.1-3.1.6-.7 1.4-1 2.2-1 .6 0 1 .2 1.4.5.4.3.6.7.8 1.3.1.3.1.9 0 1.7l-.9 9.3h6.1l.9-8.8c.1-1.4.5-2.3 1.1-3 .6-.6 1.4-1 2.2-1 .8 0 1.4.4 1.9 1.1.3.4.4 1.1.3 2l-1 9.7h6.1l1.1-10.8c.2-2.3-.1-4-1-5-.8-.8-2.1-1.4-3.9-1.4zM734.1 37.5c0 6.1-4.8 11-11.1 11-6.2 0-11.2-4.8-11.2-11 0-6 4.9-10.8 11.2-10.8 6.2 0 11.1 4.8 11.1 10.8zm-19.5 0c0 4.8 3.6 8.6 8.4 8.6 4.8 0 8.2-3.8 8.2-8.6s-3.5-8.7-8.3-8.7c-4.8 0-8.3 3.9-8.3 8.7zm6.7 5.7h-2.5V32.3c1-.2 2.4-.3 4.2-.3 2 0 3 .3 3.8.8.6.5 1.1 1.3 1.1 2.4 0 1.2-.9 2.1-2.2 2.5v.1c1.1.4 1.7 1.2 2 2.6.3 1.6.5 2.3.8 2.7h-2.7c-.3-.4-.5-1.4-.9-2.6-.2-1.2-.9-1.7-2.2-1.7h-1.2v4.4zm0-6.2h1.2c1.4 0 2.5-.5 2.5-1.6 0-1-.7-1.6-2.3-1.6-.7 0-1.1.1-1.4.1V37z"/></svg>
