<svg class="logo logo--emma-bridgewater" xmlns="http://www.w3.org/2000/svg" preserveAspectRatio="xMinYMin slice"  viewBox="0 0 360 41"><g fill="currentColor" fill-rule="evenodd"><path d="M115.946 26.36c-1.135 1.765-2.607 2.69-4.162 2.69-1.64 0-2.65-1.22-2.65-3.07 0-2.774 2.145-3.656 6.854-4.497l-.042 4.876zm7.693 2.228c-1.472 0-1.514-1.093-1.514-3.195l.042-8.198v-.084c0-4.372-2.9-6.558-8.576-6.558-5.97 0-9.586 2.565-9.586 5.38 0 1.557 1.01 2.566 2.523 2.566 1.807 0 2.984-1.26 2.984-3.237 0-.546-.126-1.176-.337-1.975.8-.59 1.976-.925 3.364-.925 2.607 0 3.49 1.345 3.49 4.246v.21l-.042 2.228c0 1.178-.883.925-4.372 1.598-5.55 1.093-8.576 2.312-8.576 6.096 0 3.11 2.06 4.92 5.675 4.92 3.28 0 5.802-1.137 7.61-3.407.125 2.187 1.64 3.407 4.16 3.407 2.734 0 4.416-.925 5.93-3.28l-1.052-.798c-.504.67-1.05 1.008-1.724 1.008zM183.25 7.82c2.103 0 4.036-1.976 4.036-3.742 0-1.85-1.093-2.9-3.025-2.9-1.892 0-3.867 1.89-3.867 3.825 0 1.682 1.133 2.817 2.857 2.817"/><path d="M101.19 26.864v-9.25c0-4.665-2.228-7.062-6.39-7.062-3.195 0-5.633 1.43-7.567 4.5-.42-2.944-2.565-4.5-6.138-4.5-2.985 0-5.675 1.556-7.61 4.5l.043-4.5c-2.775.253-5.844.42-9.25.547v1.764c2.818.085 3.322.253 3.322 2.355v11.434c0 2.222-.077 2.528-2.636 2.795-1.822-.212-1.862-.74-1.862-2.586v-9.25c0-4.665-2.228-7.062-6.39-7.062-3.195 0-5.633 1.43-7.567 4.5-.42-2.944-2.565-4.5-6.138-4.5-2.985 0-5.676 1.556-7.61 4.5l.043-4.5c-2.775.253-5.844.42-9.25.547v1.764c2.817.085 3.322.253 3.322 2.355v11.434c0 2.224-.077 2.528-2.643 2.796.113-2.418.246-4.836.414-7.253h-1.808c-.546 5.718-2.144 7.063-7.315 7.063h-7.608V16.312h2.607c3.194 0 4.034 1.177 4.203 5.423h1.807c-.084-2.48-.168-4.54-.168-6.18 0-1.555.084-3.53.168-5.886h-1.807c-.295 4.33-.883 4.624-4.204 4.624H10.55V3.154h6.306c4.835 0 6.432 1.092 6.895 6.01h1.807c-.252-2.942-.378-5.675-.462-8.24-6.642.127-13.117.17-19.38.17H0v1.975c3.153.04 3.573.546 3.573 3.657v18.918c0 3.153-.462 3.657-3.573 3.657v1.976h26.78v-.026c2.415-.11 4.255-.184 5.507-.184 1.26 0 3.195.084 5.843.21v-1.766c-2.564-.21-2.564-.63-2.564-2.858v-8.577c.672-2.732 2.522-4.372 4.708-4.372 2.018 0 2.985 1.26 2.985 3.826v9.124c0 2.354 0 2.606-2.986 2.858v1.766c2.65-.126 4.625-.21 5.928-.21s3.195.084 5.717.21v-1.766c-2.607-.168-2.607-.672-2.607-2.858v-8.577c.673-2.732 2.564-4.372 4.75-4.372 2.06 0 2.943 1.26 2.943 3.826v9.124c0 2.354 0 2.606-2.984 2.858v1.766c2.648-.126 4.624-.21 5.927-.21 1.057 0 2.512.055 4.37.144v.066c.24-.01.467-.022.695-.033l.652.033v-.062c2.023-.09 3.598-.148 4.708-.148 1.26 0 3.195.084 5.843.21v-1.766c-2.564-.21-2.564-.63-2.564-2.858v-8.577c.672-2.732 2.522-4.372 4.708-4.372 2.018 0 2.985 1.26 2.985 3.826v9.124c0 2.354 0 2.606-2.985 2.858v1.766c2.65-.126 4.625-.21 5.928-.21s3.195.084 5.718.21v-1.766c-2.607-.168-2.607-.672-2.607-2.858v-8.577c.674-2.732 2.566-4.372 4.752-4.372 2.06 0 2.942 1.26 2.942 3.826v9.124c0 2.354 0 2.606-2.984 2.858v1.766c2.648-.126 4.624-.21 5.927-.21 1.304 0 3.195.084 5.718.21v-1.766c-2.523-.168-2.565-.588-2.565-2.648M147.518 29.176h-2.565V16.9h2.733c4.246 0 6.18 1.43 6.18 5.802 0 5.003-1.64 6.474-6.348 6.474zm-2.565-25.98h2.102c4.078 0 5.928 1.092 5.928 5.76 0 4.413-1.682 5.926-5.55 5.926h-2.48V3.195zm6.81 12.653c5.508-.505 8.24-2.943 8.24-7.4 0-5.003-3.53-7.357-10.552-7.357-1.05 0-4.034.168-8.995.168-2.018 0-3.994-.04-5.928-.167V3.07c3.153.04 3.574.546 3.574 3.657v18.918c0 3.153-.462 3.657-3.573 3.657v1.976c2.144-.084 4.246-.168 6.348-.168 3.07 0 5.97.168 8.66.168 7.862 0 11.73-2.144 11.73-8.03 0-4.372-3.237-7.02-9.5-7.4z"/><path d="M187.497 26.654V10.552c-3.084.24-6.248.4-9.45.525-.63-.333-1.402-.525-2.32-.525-2.565 0-4.792 1.766-5.93 5.087l.086-5.088c-2.943.253-6.054.42-9.29.547v1.764c2.815.085 3.32.253 3.32 2.355v11.434c0 2.354-.084 2.69-3.28 2.858v1.766c3.112-.126 5.34-.168 6.6-.168 1.81 0 4.247.042 7.358.168v-1.766c-3.993-.084-4.37-.21-4.37-2.858v-5.592c0-5.044 2.143-8.45 4.665-8.744-.378.757-.546 1.387-.546 2.06 0 1.934 1.05 2.985 2.858 2.985 1.555 0 2.69-1.22 2.69-3.027 0-.488-.083-.932-.22-1.343 1.245.187 1.523.68 1.523 2.226v11.434c0 2.438-.125 2.648-3.656 2.858v1.766c2.86-.126 5.17-.21 6.98-.21 1.3 0 3.36.084 6.178.21v-1.766c-3.153-.084-3.195-.504-3.195-2.858M316.77 28.966c-1.852 0-2.397-1.093-2.397-3.237v-.506l.335-11.813h5.13v-1.85h-5.088l.168-6.6h-1.85c-.923 3.49-3.236 5.718-6.935 6.98v1.47h2.27l-.294 10.72v.59c0 4.624 1.512 6.937 6.18 6.937 3.32 0 5.505-1.388 6.473-4.205l-1.347-.588c-.63 1.43-1.47 2.102-2.647 2.102"/><path d="M330.978 12.318c2.774 0 4.036 2.06 4.078 6.348l-8.45.168c.084-4.246 1.724-6.516 4.372-6.516zm8.366 12.486c-1.262 2.9-3.363 4.414-6.348 4.414-4.12 0-6.39-2.774-6.39-8.156V20.6l14.252-.126v-.547c0-5.675-3.952-9.375-10.048-9.375-6.517 0-10.805 4.288-10.805 10.594 0 6.433 4.288 10.51 11.015 10.51 5.34 0 8.493-2.017 9.796-6.39l-1.472-.462zM204.523 26.822c-1.093 1.387-2.396 2.102-3.868 2.102-2.944 0-4.414-2.565-4.414-7.693 0-5.423 1.43-8.113 4.415-8.113 1.68 0 2.775.714 3.868 2.396v11.31zm9.08 2.69c-2.648-.126-2.774-.504-2.774-2.732V0c-3.364.252-6.6.42-9.754.505v1.807c2.774.042 3.447.168 3.447 2.186v8.45c-1.472-1.68-3.363-2.396-5.886-2.396-5.34 0-9.038 4.162-9.038 10.93 0 6.18 3.53 10.175 8.995 10.175 2.69 0 4.71-.925 6.054-2.817l.083 2.817c3.11-.17 6.054-.295 8.87-.38v-1.765z"/><path d="M354.9 10.552c-2.566 0-4.794 1.766-5.93 5.087l.085-5.088c-2.942.253-6.053.42-9.29.547v1.764c2.816.085 3.32.253 3.32 2.355v11.434c0 2.354-.083 2.69-3.28 2.858v1.766c3.112-.126 5.34-.168 6.602-.168 1.808 0 4.246.042 7.357.168v-1.766c-3.994-.084-4.372-.21-4.372-2.858v-5.592c0-5.044 2.144-8.45 4.666-8.744-.378.757-.546 1.387-.546 2.06 0 1.934 1.05 2.985 2.858 2.985 1.556 0 2.69-1.22 2.69-3.027 0-2.27-1.514-3.784-4.16-3.784M297.515 26.36c-1.136 1.765-2.607 2.69-4.162 2.69-1.64 0-2.65-1.22-2.65-3.07 0-2.774 2.145-3.656 6.854-4.497l-.042 4.876zm7.692 2.228c-1.47 0-1.512-1.093-1.512-3.195l.042-8.198v-.084c0-4.372-2.902-6.558-8.577-6.558-5.97 0-9.585 2.565-9.585 5.38 0 1.557 1.008 2.566 2.523 2.566 1.807 0 2.984-1.26 2.984-3.237 0-.546-.127-1.176-.337-1.975.8-.59 1.977-.925 3.364-.925 2.606 0 3.49 1.345 3.49 4.246v.21l-.043 2.228c0 1.178-.883.925-4.372 1.598-5.55 1.093-8.577 2.312-8.577 6.096 0 3.11 2.06 4.92 5.676 4.92 3.28 0 5.8-1.137 7.61-3.407.125 2.187 1.64 3.407 4.16 3.407 2.733 0 4.415-.925 5.93-3.28l-1.052-.798c-.505.67-1.052 1.008-1.725 1.008zM222.22 39.182c-4.245 0-6.516-1.43-6.516-3.7 0-1.22.673-2.102 1.977-2.69 7.65.798 11.77-.337 11.77 2.816 0 2.102-2.688 3.574-7.23 3.574m-.21-26.948c2.398 0 3.405 1.724 3.405 5.255 0 3.53-1.007 5.17-3.404 5.17-2.48 0-3.446-1.724-3.446-5.297 0-3.448 1.093-5.13 3.447-5.13m1.767 15.598c-4.078-.125-6.138-.25-6.138-2.017 0-1.01.756-1.43 2.268-1.43.63 0 1.22.043 1.85.043 5.76 0 9.124-2.775 9.124-6.853 0-1.598-.464-2.985-1.515-4.204.38-.548.715-.8 1.093-.8.758 0 1.683.8 2.566.8.883 0 1.344-.632 1.344-1.81 0-.42-.042-.84-.21-1.218-.504-.252-1.008-.294-1.597-.294-1.68 0-2.817.8-4.33 2.438-1.555-1.22-3.7-1.934-6.222-1.934-5.59 0-8.953 2.943-8.953 7.147 0 2.774 1.555 4.834 4.372 5.76-2.482 1.134-3.66 2.395-3.66 4.245 0 1.765 1.01 3.027 3.027 3.953-2.73.755-4.203 2.353-4.203 4.455 0 2.86 3.194 4.876 9.207 4.876 7.777 0 12.36-3.154 12.36-7.61 0-4.414-3.7-5.34-10.383-5.55"/><path d="M286.584 12.696V10.93c-1.346.127-2.48.17-3.488.17-.843 0-1.935-.043-3.197-.17v1.766c1.597.126 2.228.21 2.228 1.093 0 .336-.084.756-.21 1.176l-3.7 11.015-3.196-11.056c-.125-.462-.168-.84-.168-1.093 0-.88.337-.923 1.935-1.134l-.002-1.765c-2.185.127-3.826.17-5.045.17-1.26 0-2.983-.043-5.128-.17v1.766c1.513.168 2.102.337 2.102 1.135 0 .296-.083.758-.294 1.347l-3.993 10.72-3.45-11.057c-.083-.336-.125-.63-.125-.882 0-1.05.588-1.178 2.354-1.262V10.93c-2.313.127-4.162.21-5.55.21-1.472 0-3.322-.083-5.634-.21v1.766h.168c1.514 0 1.893.59 2.356 1.934l5.465 16.732 3.783.295c1.135-2.733 1.808-4.29 1.976-4.75l3.995-10.217 4.33 14.672 3.74.295c1.094-2.817 1.892-4.96 2.396-6.433l3.743-10.384c.543-1.555 1.048-2.144 2.603-2.144M239.415 18.834c.084-4.245 1.725-6.515 4.373-6.515 2.774-.002 4.035 2.06 4.077 6.346l-8.45.168zm4.204-8.281c-6.517 0-10.805 4.287-10.805 10.593 0 6.433 4.288 10.51 11.015 10.51 5.34.002 8.492-2.016 9.795-6.39l-1.47-.46c-1.262 2.9-3.365 4.412-6.348 4.412-4.12 0-6.392-2.773-6.392-8.155V20.6l14.252-.126v-.547c0-5.675-3.95-9.374-10.048-9.374z"/></g></svg>
