<svg class="logo logo--hasbro" fill="none" xmlns="http://www.w3.org/2000/svg" preserveAspectRatio="xMinYMin slice" viewbox="0 0 221 234"><path d="M184.5 1.7s.2 1.3.7 4.1c-9.4 3.5-36.9 13.2-75.1 22.8-4.2 1.1-8.3 2.1-12.4 3 1.25-.4 2.475-.775 3.7-1.15 1.225-.375 2.45-.75 3.7-1.15 46.8-14.7 77-28.9 77-28.9 1.1-.4 2.1.2 2.4 1.3zM35.6 232.2s.2-1 .1-4.5c10-3.9 36.7-13.9 76.9-24.3 3.3-.8 6.5-1.6 9.6-2.4-1.5.5-3 1-4.6 1.5-51.1 16.6-79.6 31-79.6 31-1 .4-2.1-.2-2.4-1.3zM197.3 111.2c11.3 44.1 23 68.6 23 68.6.3 1.1-.4 2.3-1.5 2.7 0 0-1.1.2-3.1.7-3-8.4-11.4-33.5-18.4-72zM19.9 107.7c-.7.4-1.1 1.4.2 1.3 1.8 0 8.2-1.2 15.1-3.2l-.5-3.7s-9.5 2.4-14.8 5.6zM141.4 103.1c1.1-1.8 2.4-10.2-3.2-8.2-.7.3-2 1-3.1 1.7l1.3 13.1s3.6-2.2 5-6.6zM187.49 88.49c-.871.701-4.591 3.7-6.59 11.41l-.024.262-.019.192c-.102 1.067-.231 2.411-.057 2.846l.017.144c.103.931.359 3.244 3.483 1.256l.04-.033.056-.046c.831-.68 4.387-3.587 6.204-9.421l.073-.263c.371-1.327 1.272-4.555.527-6.137a4.152 4.152 0 01-.118-.192c-.397-.663-1.038-1.737-3.482-.108l-.11.09z" fill="currentColor"/><path fill-rule="evenodd" clip-rule="evenodd" d="M24.7 117.4c-.1.1-.2.1-.3.1l-.5.3c-2.8.7-5.2 1.1-7.4 1.2-1.6 0-6.5-.7-7.3-4.1-.8-3.2.8-6.2 4.9-8.3 1.7-.9 3.8-1.8 6-2.7C7.8 64.9.3 55.8.3 55.8c-.7-1.1.3-2.3 1.4-2.7 0 0 1.2-.3 3.4-.9l.002.004C6.705 55.51 13.203 68.912 21.5 103.3l4.2-1.5C18.8 63.2 13 53.6 13 53.6c-.2-1.1.6-2.1 1.7-2.4 0 0 42-4.9 89.8-15.5s79.1-22.2 79.1-22.2c1.1-.3 2.1.4 2.3 1.5 0 0 1.9 20.2 6.6 67.1h.1c4.8-.5 6.9.9 8.7 2.9 1.3 1.5 2.6 5.4 1.8 10.1-.3 2.4-2.1 6.7-7 11.7l-.1.1c-.15.15-.3.275-.45.4-.15.125-.3.25-.45.4 5.7 46.8 14.5 72.6 14.5 72.6.1 1.1-.7 2.1-1.8 2.4 0 0-34.4 2.7-86.8 14.4-52.4 11.6-82.1 23.3-82.1 23.3-1.1.3-2.1-.4-2.3-1.5 0 0 3.4-10-5.5-79.1-1.1-8.8-2.1-16-3.2-23.2-1.8.4-3.2.8-3.2.8zm-10.5-9.8c6.5-3.5 20.3-7.3 20.3-7.3S32 86.6 31.1 85.5c-.267-1.601-.93-2.015-1.495-2.369A8.11 8.11 0 0129.4 83c-2-.4 0-1.6 0-1.6 3.355-2.588 8.18-3.89 9.543-4.258l.157-.042c4.288-1.487 4.288 1.772 4.288 3.347 0 .225 0 .415.012.553.1 6.5 2.2 21.9 2.2 21.9l10.9-2.8s-1.6-18.4-1.7-19.3c-.1-2.3-.7-2.9-1.1-3.3-.828-.552-.216-.85.354-1.128l.146-.072c2.1-1.4 6.3-2 7.1-2.1 3.742-.61 3.243 2.493 2.985 4.099-.039.24-.072.445-.085.601-.7 6.2.2 18.4.3 19.4 8.1-1.7 15.6-2.7 16.5-2.8 9.2-1.3 12-.6 12-.6 1.6.5.7 1.6-.2 1.7-1 .3-3.5 2.1-4.6 3-8.7 7.6-9.7 14.6-9.6 15.8.093 2.034 1.467 1.247 2.385.722L81.2 116c4.96-3.274 8.051-12.553 8.392-13.577l.008-.023c.361-1.626.886-2.028 1.353-2.386l.07-.053.077-.061c2.1-1.5 4.5-2.3 5.6-2.6 2.2-.4 2.1 1.5 2 2.1-1 5.1-1.4 9.3-1.5 10.8-.1 5.5 2.6 7 3.2 7.3 1.134.851.214 1.076-.566 1.267l-.053.013-.081.02c-7.221 1.781-9.745-4.561-9.993-5.182l-.007-.018c-3.697 4.621-7.052 5.911-8.723 6.553l-.377.147c-8.9 2.5-10.2-6.6-8.8-9.5 1.9-5.5 5.4-9.1 5.9-9.6.418-.418-8.059.984-11.245 1.511-.62.103-1.04.173-1.155.189.7 7.3 4 18.8 4.3 19.8.892 1.784.352 2.136-.059 2.404-.05.032-.098.064-.141.096-1.217.649-3.092.969-4.29 1.173-.28.048-.521.089-.71.127-3.3.8-3.9-3.5-3.9-3.5l-2.9-18.6-10.9 2.7s3.1 18.4 3.2 19.4c.553 1.751-.508 2.143-1.07 2.35l-.13.05c-2.198.814-4.596.965-5.896 1.048h-.002c-.296.018-.535.033-.702.052-3.1.5-3.6-3.4-3.6-3.4-.2-.7-.6-3-.6-3l-2.1-13.8s-11.4 3-12.5 3.3c-3.6.9-6 1.2-7.8 1.3-9.3 0-3.8-5.6-1.3-6.8zm109.2-15.5c.1.9-.5.7-.5.7-6.559.787-10.288 3.869-11.857 5.165-.225.185-.405.335-.543.435-3.696 5.082 1.316 6.407 3.756 7.053l.004.001c.2.053.381.101.54.146.254.064.647.154 1.124.264 1.776.408 4.715 1.084 5.976 1.636 5.016 1.765 3.216 6.722 2.614 8.38-.046.127-.086.235-.114.32-3.1 6.5-10.7 12.2-12.2 13-6.253 3.495-8.532 2.338-9.402 1.896a3.36 3.36 0 00-.198-.096c-3-1.6-5-5-5.3-5.6-.5-1.4.8-1.1 1.4-.8 3.652 1.967 6.691-.013 7.719-.683l.132-.086.049-.031c3.899-2.971 6.505-6.372 7.419-7.564l.181-.236c4.8-6.6-3.2-7.3-3.2-7.3-2.5-.2-6.7-1.4-6.7-1.4-5.407-1.641-2.797-7.57-2.34-8.608l.04-.092c4.142-7.625 12.715-10.996 14.29-11.616.098-.038.169-.066.21-.084 2.49-.766 3.513-.248 4.122.06l.007.004.071.036c2.292 1.242 2.578 3.943 2.686 4.967l.007.072.007.061zm-4.3-18c-1.3-.3-.3-.8-.3-.8 2.5-1.4 6.9-2 7.8-2.1 3.661-.458 4.39 1.095 4.947 2.281.052.11.102.217.153.319 1.567 4.615 2.68 15.37 3.007 18.536.049.47.08.773.093.864 4.632-3.12 7.03-3.469 8.968-3.751l.332-.049c12.8-.1 6.1 11.2 5.4 12-5.4 8.1-13.3 13.4-16.7 14.3-4.547 1.114-4.788-1.648-4.88-2.691a9.16 9.16 0 00-.009-.107l-.011-.102c.2-2.8-1.1-13.2-1.3-14.3-1.485-10.674-3.832-18.075-4.481-20.122L122 78c-.9-2.7-2.4-3.6-2.9-3.9zM156.8 88c4.8-.7 6.7 3.3 6.7 3.3 6.2-8.1 11.2-8.4 12.1-8.4 3.277-.375 3.661 1.092 3.861 1.855v.001c.014.052.026.1.039.144.38 2.66-1.587 4.599-2.299 5.3a6.257 6.257 0 00-.051.05l-.05.05c-.754.66-1.153.254-1.447-.046l-.053-.054c-1.699-1.967-3.718-.976-4.627-.53a6.144 6.144 0 01-.273.13c-4 2.1-5.6 5.6-5.9 6.4.7 2.4.7 11.6.7 12.4.087 1.644-.65 2.015-1.304 2.345a5.843 5.843 0 00-.296.155c-2.1 1.1-6.3 1.3-7.2 1.3-2.6.1-1.9-2.1-1.7-2.7 2.426-9.704 2.269-13.192 2.212-14.452a7.616 7.616 0 01-.012-.348c-.191-3.154-3.305-3.568-4.192-3.685l-.108-.015c-1.2-.2-.4-1.1-.2-1.3 1.431-1.24 3.134-1.661 3.983-1.87l.117-.03zm22.6 21.4c-8 .5-7.3-6.4-7.3-6.4.1-6 5.9-12 6.8-12.9 5.443-5.443 11.238-6.306 12.923-6.557.058-.01.111-.017.16-.024l.117-.019c9.861-.598 8.114 8.13 7.902 9.188L200 92.7c-.7 4.7-5.3 9.3-6.2 10.2-5.735 5.735-12.748 6.354-14.23 6.485l-.17.015zm-30.391 6.209c.053-.085.091-.147.091-.209.4-.5-.2-1.7-1.2-.1 0 0-13 19-38.7 25.2-.055.012-.171.044-.345.091-2.669.729-18.96 5.179-37.455.109a11.59 11.59 0 01-.73-.211c-.558-.177-.67-.212-.67.311 0 .7 1 12 12.4 20.9 2 1.6 13.1 10.2 30.8 11 1.9.1 14.1.7 24.3-6 1.1-.6 7.1-3.9 11.6-12.6.058-.139.156-.333.283-.588.979-1.948 3.717-7.398 3.717-18.012 0-1.2 0-8.7-2.5-17.2 0-.8-1.4-.9-1.2.3.2.801.8 3.201 1 5.6.3 2 1.9 13.2-2.5 24l-.083.19-.053.123c-1.054 2.454-5.154 11.992-16.964 16.087-.103.032-.254.085-.452.154l-.001.001c-2.875 1.004-15.498 5.413-30.747-.855-.6-.2-16-6.2-18.9-15.6.093 0 .307.014.631.035 2.797.183 13.78.902 25.969-2.235l.278-.068c2.386-.578 13.61-3.298 23.922-11.032 1-.7 12.8-9.2 17.4-19.2.038-.076.076-.138.109-.191z" fill="currentColor"/></svg>
