<svg class="logo logo--hummingbird-bakery" xmlns="http://www.w3.org/2000/svg" width="544" height="174"><g fill="currentColor" fill-rule="nonzero"><path d="M8.2 71.6H4.6v10.5H.3v3.4h4.4v33.4c0 3.1 1.2 4.9 6.1 4.9 1.2 0 2.5-.1 3.7-.2v-3.2c-.9.1-2.3.2-3.2.2-3 0-3-1.7-3-3.9v-31h6.2v-3.4H8.2V71.6zM35.6 83.4c-1.3-1-3.2-1.6-5.2-1.6-4.2 0-6.2 2.4-7.5 3.7v-20h-3.5v58.1h3.5V90.7c.3-1.2.7-2.4 1.9-3.6 1.3-1.2 3-1.9 4.7-1.9 5.4 0 5.4 5 5.4 7.7v30.7h3.5V90.8c.1-1.8.1-5.1-2.8-7.4zM64.8 113.9v-4.6h-3.5c0 5.9 0 6.3-.6 7.7-1.2 3.5-4.4 3.5-5.3 3.5-3.4 0-6.1-1.6-6.1-7v-10.2h15.5V95c0-5.1 0-13-9.6-13-5.9 0-9.3 3.6-9.3 9.9v21.6c0 3.5.6 5.8 2.9 7.8 2.1 2 4.5 2.3 6.5 2.3 6 .1 9.5-3.5 9.5-9.7zM49.3 93.1c0-2 0-8 6-8 5.9 0 5.9 6.3 5.9 7.6v7.6H49.3v-7.2zM110.4 123.6V90.8c0-1.8 0-5.1-2.9-7.4-1.3-1-3.2-1.6-5.2-1.6-4.2 0-6.2 2.4-7.5 3.7v-20h-3.5v58.1h3.5V90.7c.3-1.2.7-2.4 1.9-3.6 1.3-1.2 3-1.9 4.7-1.9 5.4 0 5.4 5 5.4 7.7v30.7h3.6zM126.2 123.8c4.3 0 6.4-2.7 7.5-4.1v3.9h3.5V82.2h-3.5v33.3c-.7 1.8-2.2 5.3-6.4 5.3-5.1 0-5.4-5-5.4-7.6v-31h-3.5v31.9c0 2.1 0 6.2 3.3 8.4 1.2.8 2.8 1.3 4.5 1.3zM172.6 81.7c-4.9 0-7.2 3.3-8.4 4.9-.7-1.6-2.2-4.9-7-4.9-4.4 0-6.9 3-7.7 3.9v-3.5h-3.6v41.4h3.5v-34c0-.2 2.1-4.5 6.7-4.5 2 0 3.7 1 4.5 2.4.7 1.2.7 2.8.7 3.6v32.6h3.5V90.1c0-.1 1.6-5.2 6.8-5.2 1.5 0 4 .6 4.8 3.4.3 1.2.3 2.4.3 5.7v29.6h3.5V94.3c0-3.8 0-5.5-.4-7.1-.7-3.7-3.9-5.5-7.2-5.5zM203.5 87.3c.7 1.2.7 2.8.7 3.6v32.6h3.5V90.1c0-.1 1.6-5.2 6.8-5.2 1.5 0 4 .6 4.8 3.4.3 1.2.3 2.4.3 5.7v29.6h3.5V94.3c0-3.8 0-5.5-.4-7.1-.9-3.8-4.1-5.5-7.3-5.5-4.9 0-7.2 3.3-8.4 4.9-.7-1.6-2.2-4.9-7-4.9-4.4 0-6.9 3-7.7 3.9v-3.5h-3.6v41.4h3.5v-34c0-.2 2.1-4.5 6.7-4.5 2 0 3.8.9 4.6 2.3zM231.5 82.2h3.5v41.4h-3.5zM231.5 71h3.5v6.4h-3.5zM259.2 82.8c-1.5-.8-3.1-1.1-4.3-1.1-1.8 0-3.5.5-4.8 1.3-1.6 1.1-2.3 2.1-2.9 3.1v-4h-3.5v41.4h3.5V90c.3-.9.7-1.7 1.5-2.7 1.3-1.5 3.4-2.5 5.4-2.5 2.3 0 5.1 1.3 5.1 5.7v33.1h3.5V90.4c.1-1.7.1-5.5-3.5-7.6zM289.8 125.5V82.1h-3.5v3.5c-1.1-1.4-2.9-3.8-6.9-3.8-7 0-8.5 5.1-8.5 9.4v20.9c0 3.5 0 11.3 8.1 11.3 3.9 0 5.8-2 7.2-3.6v6.9c0 6.4-5.8 6.5-6.6 6.5-5.5 0-5.6-3.9-5.7-5.4h-3.5c.1 2.5.2 5.2 3 7.1.5.3 2.5 1.7 6.1 1.7 2.5 0 5.1-.7 7-2.4 3.3-2.7 3.3-6.3 3.3-8.7zm-3.5-11.6c0 1.2-1.7 6.2-6.5 6.2-5.4 0-5.4-5.3-5.4-7.9V93.1c0-2.6 0-8.1 5.7-8.1 4.5 0 6.2 4.6 6.2 5.8v23.1zM302 120.2c.8 1.2 2.6 3.6 6.7 3.6 4.9 0 8.7-3.8 8.7-9.9V92.8c0-3 0-11-8.1-11-4.4 0-6.3 2.5-7.6 4V65.5h-3.5v58h3.6v-3.3h.2zm-.1-27.7c0-5.4 3.4-7.5 6.6-7.5 4 0 5.5 3.2 5.5 7.6v20.1c0 1.6 0 4.6-2.1 6.6-.9.9-2.1 1.4-3.5 1.4-2.8 0-6.6-2.5-6.6-8.3V92.5h.1zM325.6 71h3.5v6.4h-3.5zM325.6 82.2h3.5v41.4h-3.5zM349.8 81.2c-5.9 3-7.5 5.8-8.6 8.3v-7.2h-3.4v41.4h3.5V94.4c2.9-6.7 5.3-7.6 8.6-8.6v-4.6h-.1zM373.6 123.6v-58h-3.5v20.6c-1.2-1.6-3-3.9-7.3-3.9-2.5 0-8.3 1.1-8.3 10.5v20.7c0 2 0 10.4 8.2 10.4 4.6 0 6.7-3 7.6-4.7v4.4h3.3zm-3.5-8.8c0 1.1-1.7 6-6.5 6-5.7 0-5.7-6-5.7-8v-20c0-6.9 4.6-7.2 5.8-7.2 5.3 0 6.4 6.2 6.4 7.3v21.9zM420.1 92.8c0-3 0-11-8.1-11-4.4 0-6.3 2.5-7.6 4V65.5H401v58h3.6v-3.4c.8 1.2 2.6 3.6 6.7 3.6 4.9 0 8.7-3.8 8.7-9.9v-21h.1zm-3.4 19.9c0 1.6 0 4.6-2.1 6.6-.9.9-2.1 1.4-3.5 1.4-2.8 0-6.6-2.5-6.6-8.3V92.5c0-5.4 3.4-7.5 6.6-7.5 4 0 5.5 3.2 5.5 7.6v20.1h.1zM442.5 120.4c.7 2.7 2.3 3.2 5.9 3.2v-3.3c-1.2 0-2.5-.1-2.5-1.5V91c0-2.5 0-9-8.4-9-9.5 0-9.5 6.7-9.5 13h3.5c0-5.5 0-9.7 5.5-9.7 4.9 0 5.3 3 5.3 6.7v4.8c-2.1 1.6-2.7 1.9-6.9 4.1-4.3 2.2-9.1 5.1-9.1 13 0 5.1 2.3 9.7 8.1 9.7 4 0 6.3-1.8 8.1-3.2zM430 114c0-6.1 3.5-8.1 7.6-10.4 3.3-1.8 3.6-2 4.9-2.9v15.7c-1.6 1.8-3.6 3.9-7.2 3.9-3.9 0-5.3-3-5.3-6.3zM474.5 123.6L463.9 98l9.6-15.8h-4l-11.9 19.4V65.5h-3.5v58.1h3.6v-15.4l3.9-6.5 9.1 21.9zM488.4 82c-5.9 0-9.3 3.6-9.3 9.9v21.6c0 3.5.6 5.8 2.9 7.8 2.1 2 4.5 2.3 6.5 2.3 6.1 0 9.5-3.5 9.5-9.8v-4.6h-3.5c0 5.9 0 6.3-.6 7.7-1.2 3.5-4.4 3.5-5.3 3.5-3.4 0-6.1-1.6-6.1-7v-10.2H498V95c0-5.1 0-13-9.6-13zm6.1 18.4h-11.9v-7.3c0-2 0-8 6-8 5.9 0 5.9 6.3 5.9 7.6v7.7zM509.1 89.5v-7.2h-3.4v41.4h3.5V94.4c2.9-6.7 5.3-7.6 8.6-8.6v-4.7c-6 3-7.6 5.9-8.7 8.4zM539.5 82.2l-7.3 34.4-7.2-34.4h-3.5l9 41.1-1 4.8c-.2 1.2-1.2 5.7-6.7 5.7-.7 0-1.2-.1-1.8-.2v3.5c5.3 0 9.7-.4 11.7-8.8l10.6-46h-3.8v-.1z"/><path d="M395.4 78.5l-9.8-18.2-.8-1.3-.6-1.1-.3-1.2-.4-1.1-.4-1-.3-1.1-.2-1.2-.4-1.7-.1-1.7v-.8l-.4-1.1-.2-.7-.3-.8-.4-.8-.4-.8 3.2-1.4 1.4-1.2 2.5-.6 1.6-1.5 2.7-1.4.9-1 1-1.8 7.2-2.1 1.4-1.4 3-1.2 1.4-1 1.4-.4 1.8-.7 1.4-.6 1.5-.8 1-.5 1.5-.6 1.8-.8 1.2-.7 1.1-.6 1.2-.8.9-.7.9-.8.9-.6 1.1-.7 1.9-1.9-.2-.4-1.7.8-1.1.6-1.6.4-1.5.5-1.4.4-1.8.4-1.4.5-1.1.2-1.1.1-1.5.1-1.2.2h-1.1l-1.3.1h-1.6l-2.4.2h-1.8l-2.1.2-2.1.1-1.6.1-1.3.1h-1l-1.1.1h-1.2l-1 .1H390l-1.3.1-.8-.1-.4-.1-.9-.3-.8-.2-1-.2-1.7-.1-1.4-.1h-.9l-.9-.2-1.1-.3-.9-.2-.9-.1-1.1.1-1.1.1h-1.2l-1 .2-1.2.1-1 .2-1 .1-1 .2-1.1.2-1.1-.2-.9-.4-.7-.5-.7-.6-.7-.6-.6-.7-.9-1.1-.6-.7-.6-.8-.3-.6-.1-1.1-.3-1.1-.4-1.4-.5-1.1-.7-1-.5-1.6-.4-1-.5-1-.8-1.2-.4-.7-.6-1-.8-.6-1.2-.6-1.3-.3-2-.4H348l-1.5.1-1.7.3-1.7.3-1.3.3-.8.3-1.1.3-.7.1-16-3.7-.1.4 14.2 6.1 1.3 1.2.1.3.6 1.2.3 1 .4 1 .4 1.1.5 1.3.4 1.2.5 1.3.3 1.3.5 1.4.6 1.4.2 1.3.3 1.2.4 1.4.5 1.3.3 1.2.3 1.6.4 1.2.2 1.4.3 1.5.3 1.8.3 1.7.3 1.3.7 1.8.6 1.2.7 1.3.8 1.5.9 1.1 1.3 1.4 1 1.1 1.2 1.4 1.2 1.1 1 1 1.3 1.1 1 1.2 1.5 1.6.8.9 1.2 1.5 3.1 1.4h2.2l1.9 1.6 2.7 1.1 3.9 3.5 2.2 1.1 2.3 1.6 4.1 5.5 4 6.3v.1l3.8 1.9 2.1-.4z"/></g></svg>
