<svg class="logo logo--lightbox" xmlns="http://www.w3.org/2000/svg" preserveAspectRatio="xMinYMin slice" viewBox="0 0 337.7 108.3"><path d="M310.2 27.2H305l-6.7 9.9-6.6-9.9h-5.3l9.2 13.3-9.6 13.8h5.1l7.1-10.4 7 10.4h5.3l-9.6-13.8 9.3-13.3zm-51.9 3.7c5.5 0 9.6 4 9.6 9.8s-4.1 9.8-9.6 9.8-9.6-4-9.6-9.8c0-5.8 4.1-9.8 9.6-9.8m0-4.2c-8.3 0-14.2 6-14.2 14s5.9 14 14.2 14c8.3 0 14.2-6 14.2-14s-5.9-14-14.2-14m-40.9 4.6c3 0 5.7.5 5.7 3.6 0 3.2-2.7 3.7-5.7 3.7h-6v-7.3h6zm.6 11.4c3.4 0 5.7.7 5.7 3.7 0 3.1-2.3 3.8-5.7 3.8h-6.6v-7.5h6.6zm-11-15.5v27.1h11.1c6.2 0 10.1-2.3 10.1-7.7 0-3.1-2.2-5.5-4.8-6.2 2.4-.7 4.2-3 4.2-5.8 0-5.4-4.4-7.4-10.1-7.4H207zm-16.2 0h-21.9v4.1h8.8v22.9h4.4V31.3h8.8v-4.1zm-57.1 0h-4.4v27.1h4.4V42.8h14.6v11.6h4.4V27.3h-4.4v11.4h-14.6V27.2zM99 26.7c-8.2 0-14.2 5.9-14.2 14 0 9 7 14 14 14 8.4 0 13.3-6.4 13.3-14.2v-1h-11.9v4.1h7.2c-.7 4.5-3.6 7-8.5 7-5.3 0-9.4-4-9.4-9.8s4.1-9.8 9.6-9.8c3 0 5.6 1.3 7.3 3.3l3.2-3.1c-2.6-2.8-6.3-4.5-10.6-4.5m-31.9.5h-4.4v27.1h4.4V27.2zm-20.6 23h-15V27.3h-4.4v27.1h19.4v-4.2z" fill="currentColor"/></svg>
