<svg class="logo logo--madderson-london" xmlns="http://www.w3.org/2000/svg" version="1" preserveAspectRatio="xMinYMin slice" viewBox="0 0 117 72"><path fill="currentColor" d="M29.3 66.4h.9v4.3h2.7v.8h-3.6v-5.1zm9.2 2.6c0-1.4 1.1-2.6 2.7-2.6s2.6 1.2 2.6 2.6c0 1.4-1.1 2.6-2.7 2.6-1.5 0-2.6-1.2-2.6-2.6zm4.4 0c0-1-.7-1.8-1.7-1.8s-1.7.8-1.7 1.8.7 1.8 1.7 1.8 1.7-.8 1.7-1.8zm7.2-2.6h.8l2.7 3.5v-3.5h.9v5.1h-.7L51 67.9v3.6h-.9v-5.1zm10.9 0h1.9c1.6 0 2.7 1.1 2.7 2.5s-1.1 2.5-2.7 2.5H61v-5zm1.9 4.3c1.1 0 1.8-.7 1.8-1.7s-.7-1.7-1.8-1.7h-1v3.5h1zm8.7-1.7c0-1.4 1.1-2.6 2.7-2.6s2.6 1.2 2.6 2.6c0 1.4-1.1 2.6-2.7 2.6-1.5 0-2.6-1.2-2.6-2.6zm4.4 0c0-1-.7-1.8-1.7-1.8s-1.7.8-1.7 1.8.7 1.8 1.7 1.8S76 70 76 69zm7.2-2.6h.8l2.7 3.5v-3.5h.9v5.1h-.7L84 67.9v3.6h-.9v-5.1zm-43.3-59c.3 0 .6.1.8.2.2.1.3.4.3.7v20.3c0 .3-.1.6-.3.8-.2.2-.5.3-.8.3v1h3.6V6.4h-3.6v1zm37.8.2c.2-.1.5-.2.8-.2v-1h-3.6v24.2h3.6v-1c-.3 0-.6-.1-.8-.3-.2-.2-.3-.4-.3-.8V8.4c0-.4.1-.6.3-.8zM67 1c.2 0 .4.1.6.2.2.1.3.3.3.5s-.1.4-.2.7c-.2.3-.3.6-.5 1l-8.1 14.7-3.6 6.5 1.4 2.6L71.1 1.4v3.1L57.8 28.6l1.4 2.6L71.1 9.6v19c0 .3-.1.6-.3.8-.2.2-.5.3-.8.3v1h3.6V0H67v1zM54.9 23.2l1.4-2.6-9-16.1V1.4l9.8 17.8 1.4-2.6-7.2-13.2v-.1c-.2-.3-.4-.7-.5-1-.2-.3-.2-.5-.2-.7 0-.2.1-.4.3-.5.1 0 .3-.1.5-.1V0h-6.5v30.7h3.6v-1c-.3 0-.6-.1-.8-.3-.2-.2-.3-.4-.3-.8v-19l7.5 13.6zM0 43h2.3l3.8 5.9L9.9 43h2.3v12.5H10v-9l-3.9 5.9-3.9-5.9v8.9H0V43zm20 .9h1.7l4.6 10.6h-1.9L23.3 52h-5l-1.1 2.5h-1.9L20 43.9zm2.7 6.4l-1.8-4.2-1.8 4.2h3.6zm6.6-6.3h3.9c3.3 0 5.6 2.3 5.6 5.2 0 3-2.3 5.3-5.6 5.3h-3.9V44zm3.9 8.8c2.2 0 3.6-1.5 3.6-3.5 0-2.1-1.4-3.6-3.6-3.6h-2.1v7.1h2.1zm9.4-8.8h3.9c3.3 0 5.6 2.3 5.6 5.2 0 3-2.3 5.3-5.6 5.3h-3.9V44zm3.9 8.8c2.2 0 3.6-1.5 3.6-3.5 0-2.1-1.4-3.6-3.6-3.6h-2.1v7.1h2.1zm9.4-8.8h7.8v1.7h-5.9v2.7H63V50h-5.3v2.8h6v1.7h-7.9V44zm12 0h4.7c1.3 0 2.4.4 3 1.1.6.6.9 1.3.9 2.3 0 1.7-1 2.8-2.5 3.2l2.8 4h-2.2L72 50.8h-2.3v3.7h-1.8V44zm4.5 5.2c1.3 0 2.2-.7 2.2-1.8s-.8-1.7-2.2-1.7h-2.7v3.5h2.7zm7.3 3.8l1.1-1.3c1 .9 2 1.4 3.3 1.4 1.1 0 1.9-.5 1.9-1.3s-.4-1.2-2.4-1.6c-2.2-.5-3.5-1.2-3.5-3.1 0-1.8 1.5-3 3.6-3 1.5 0 2.7.5 3.8 1.3l-1 1.4c-.9-.7-1.9-1.1-2.8-1.1-1.1 0-1.7.6-1.7 1.2 0 .8.5 1.2 2.5 1.6 2.2.5 3.4 1.3 3.4 3.1 0 2-1.5 3.1-3.8 3.1-1.6-.1-3.1-.6-4.4-1.7zM91 49.3c0-3 2.3-5.5 5.5-5.5s5.5 2.4 5.5 5.4c0 3-2.3 5.4-5.5 5.4-3.3.1-5.5-2.4-5.5-5.3zm9 0c0-2.1-1.5-3.8-3.6-3.8s-3.5 1.7-3.5 3.7 1.5 3.7 3.6 3.7c2.1.1 3.5-1.6 3.5-3.6zm6-6.3h2l6.7 8.6V43h2.2v12.5H115l-6.9-8.9v8.9H106V43z"/></svg>
