<svg class="logo logo--newbie" xmlns="http://www.w3.org/2000/svg" width="233" height="47"><path d="M40.72 43.81c-2.326 1.24-5.005 1.824-7.68 1.824-3.03 0-6.13-.783-8.595-2.41 0-.196-.07-.392-.07-.586 0-2.605 4.156-1.89 5.283-4.43.353-.847.634-5.344.634-6.45 0-2.28-.28-4.558-1.127-6.774.986-.26 1.69-1.172 1.69-2.084 0-.65-.353-1.37-.984-1.695-1.27-1.758-3.523-2.604-5.425-3.712-3.592 3.194-11.554 1.89-11.554 8.144-1.338 1.236-1.903 2.995-1.903 4.754 0 2.474.92 4.756 1.2 7.167.07.39.14.717.282 1.105.772 2.217 4.72 1.957 4.72 5.084 0 .455-.07.91-.215 1.367-1.548.39-4.153-.52-4.084 1.887C8.313 43.42.566 48.045 0 41.335h.846c5.707 0 4.298-7.296 5.282-10.684-1.48-2.864.706-8.795-3.38-10.032.07-.193.14-.454.14-.65 0-.913-1.407-1.564-2.185-1.89H0c1.48-1.366 1.41-3.127 3.38-4.36.355-.07.705-.135 1.06-.135 3.028 0 5.562 2.283 7.748 3.91 2.536-1.564 5.563-2.085 7.537-4.43l2.68 1.888v-1.886c.49-.064.984-.064 1.478-.064 3.31 0 5.564 1.365 8.17 2.994.423.26.845.522 1.2.846 1.9 1.63 2.112 6.32 2.112 8.6 0 1.238-.138 2.41-.138 3.585 0 2.15 1.125 4.1 1.125 6.253a4.576 4.576 0 0 1-1.057 2.93C36.917 39.577 41 40.163 41 42.64c0 .39-.14.783-.28 1.173M76.795 27.79c-2.54.446-4.807 1.785-7.486 1.785-1.513 0-2.815-.703-3.778-1.785-1.647.638-3.432.826-5.218.826-1.578 0-3.158-.188-4.737-.188-.208-.638-.754-1.212-1.51-1.212-1.58 0-3.57 1.912-5.08 2.422.685 4.017 4.463 7.075 7.894 9.243 2.13 1.276 4.12 1.85 6.663 1.85 3.43 0 5.903-5.23 8.79-5.23 1.51 0 2.538 1.66 3.09 2.743-3.09 4.847-7.145 5.8-12.775 6.44-1.235.125-2.472.317-3.777.317-.822 0-2.674-.51-3.43-.828C48.368 41.24 46.24 34.292 45 27.79c1.308-3.76.69-9.816 5.976-11.028l3.982-3.698c.41.383.962.572 1.512.572 1.373 0 2.677-.636 3.98-.636 1.034 0 1.925.51 2.407 1.277l2.675-1.213c.894.828 2.13 1.47 3.436 1.47.41 0 .822-.07 1.166-.257C73.154 17.525 77 21.095 77 25.687c0 .7-.07 1.466-.205 2.103m-9.958-9.816c-.755-.512-1.784-.83-2.748-.83-1.92 0-3.572 1.084-5.49 1.084-.552 0-1.17-.063-1.72-.254-4.392.572-5.56 4.844-7.275 8.03.41.32.96.64 1.508.64 1.442 0 2.472-1.596 3.778-1.596.62 0 1.098.447 1.374.956 5.08-.634 10.162-1.208 15.24-1.848-.545-1.976-2.952-4.972-4.667-6.182m25.378 26.513c-.626.258-1.25.513-1.942.513-2.985 0-2.432-5.184-4.03-6.72.142-.32.212-.704.212-1.024 0-2.432-2.707-4.29-2.707-6.72 0-.514.14-1.025.483-1.47-1.107-2.05-1.595-4.995-1.595-7.235 0-.702 0-1.408.21-2.047-.21.065-.415.065-.623.065-2.152 0-1.805-2.43-2.013-3.777-.07-.383-.21-.832-.21-1.214 0-1.217.765-1.667 2.012-1.667 1.388 0 2.776.512 4.163.512.28 0 .49 0 .695-.063.418 1.216 1.25 1.02 2.36 1.02.348 0 .694.068.97.196-1.594 2.43-1.87 5.377-1.87 8.19 0 3.65.556 7.297.556 10.948.9 1.28 2.287 3.07 4.16 3.07.693 0 1.318-.255 1.875-.642h.696c-2.29 2.114-3.4 5.187-3.4 8.065m21.373-14.848c0 1.28.278 2.56.692 3.71-.832.193-1.25.77-1.25 1.603 0 .384.072.83.072 1.28 0 .447-.208.895-.764.832 0 3.008-.348 6.912-4.65 6.912-1.665 0-2.29-1.28-2.778-2.624l1.39-.576c-2.36-1.09-3.19-4.097-3.955-6.21a15.422 15.422 0 0 1-.765-1.855c-.763-2.497-.347-6.017-3.33-7.36-.347.32-.97.766-.97 1.28 0 .45.623.896.97 1.153-1.18 1.6-2.775 3.2-2.775 5.182 0 .384 0 .705.14 1.027h-.696c.07-.193.07-.387.07-.576 0-1.536-1.108-2.817-1.108-4.353 0-.704.414-1.41 1.04-1.856.902-2.628.76-6.21 4.024-7.427-.208.256-.416.513-.416.832 0 1.41 4.372.513 5.065 1.665-.207 1.087-.554 2.24-.554 3.456 0 1.792.973 3.01 2.57 3.903 0 2.817 0 6.143 1.317 8.64 1.944.065 2.083-1.858 2.707-3.07-.763-.704-1.042-1.667-1.042-2.626 0-1.407.554-2.817 1.042-4.16a4.89 4.89 0 0 1-.208-1.408c0-2.367 1.25-4.48 1.25-6.783 0-2.243-1.598-3.458-3.75-4.162.07-1.214 1.112-2.238 2.013-3.07.553.64 1.387.895 2.29.895 1.596 0 3.122-.706 4.787-.706 1.874 0 2.637 1.346 2.983 2.88-1.525 4.607-5.41 8.642-5.41 13.57m44.991-1.533c.07.73.14 1.458.14 2.122 0 5.167-2.34 10.273-6.31 13.852-1.488 1.325-3.33 1.922-5.387 1.922-2.627 0-5.247-.86-7.587-1.922l-.638 1.258c-.71-3.31-4.47-2.252-6.17-3.842l-4.112 3.842c-1.488-.33-2.27-1.59-2.27-2.98 0-.993.355-1.925.92-2.784-.068-.664-.138-1.326-.138-2.057 0-3.113.707-6.295.707-9.41 0-1.988-.353-3.98-1.274-5.767 0-3.58 1.558-7.092 1.558-10.67 0-1.858-.496-3.715-1.557-5.305-2.056-.664-3.687-2.055-5.463-3.18.71-1.923 3.973-1.923 5.463-3.183 2.692 0 5.103 2.186 6.807 3.844.21.662.353 1.326.353 2.055 0 2.32-1.064 4.573-1.064 6.958 0 1.327.496 2.718 1.418 3.714 1.773 0 2.126-1.99 3.97-1.99.284 0 .568.068.852.068.21.46.353.926.353 1.39 0 2.983-5.103 4.31-4.47 8.22-1.202 1.788-2.41 3.91-2.41 6.096 0 .994.357 2.057.997 2.85 3.97 1.59 3.26 9.614 7.8 9.614 1.487 0 2.55-.795 3.827-1.326.993-.397 2.055-.662 2.98-1.193 3.968-2.386 6.31-7.423 7.303-11.534-1.277-3.05-2.838-5.966-4.112-8.95-1.136-.393-3.548-1.39-3.548-2.715 0-.198.073-.33.143-.528-.78.2-1.56.33-2.342.33-1.275 0-2.55-.265-3.827-.33-.142-.332-.284-.73-.284-1.196 0-1.787 2.127-2.518 3.756-2.518 3.548 0 5.818 3.183 8.796 3.183.28 0 .494 0 .71-.065 1.558 2.781 5.528 5.763 5.528 9.01 0 1.13-.64 2.256-1.418 3.117M195 44.95c-6.51 1.256-13.238 1.324-19.817 1.324-.922.462-1.983.726-2.972.726-1.627 0-3.114-.465-4.668-.465-.71 0-1.347.068-1.914.333-1.06-.462-1.628-1.586-1.628-2.644 0-2.047 2.763-2.773 4.53-2.773 1.768 0 3.538.33 5.31.33l2.052 1.32c.706-.726 1.13-1.714 1.13-2.704 0-2.115-1.276-4.095-1.276-6.275 0-.86.285-1.784.783-2.512.282-1.585.562-3.235.562-4.887 0-2.312-.494-4.755-2.335-6.474-.21-.196-.634-.594-.918-.724-.357-.134-.71-.134-1.06-.134-1.63 0-3.258.53-4.887.53-1.768 0-3.184-.925-3.184-2.71 0-1.255 1.132-2.245 2.264-2.773.776.528 1.767.727 2.757.727 1.207 0 2.412-.2 3.682-.2 1.065 0 2.195.2 3.117.727.562-.528 1.273-1.058 2.12-1.058 1.558 0 2.62 1.983 3.327 2.973 0 4.293 1.275 8.587 1.275 12.883 0 2.114-.425 4.226-1.275 6.207.496 3.105 2.265 4.226 5.522 4.226 1.13 0 2.334-.13 3.467-.13 2.688 0 4.033.86 4.033 3.5v.66zm-15.075-33.09c-3.185 0-7.5-.596-7.5-4.427.917-2.244 1.623-2.774 4.104-3.17.633-.133 1.2-.263 1.838-.263 2.124 0 3.752 1.254 5.025 2.774-.566 1.584-1.84 4.29-3.468 5.085zm52.87 15.93c-2.542.446-4.807 1.785-7.486 1.785-1.513 0-2.815-.703-3.778-1.785-1.648.638-3.433.826-5.22.826-1.576 0-3.157-.188-4.736-.188-.207-.638-.753-1.212-1.51-1.212-1.58 0-3.57 1.912-5.08 2.422.686 4.017 4.464 7.075 7.893 9.243 2.13 1.276 4.12 1.85 6.663 1.85 3.43 0 5.903-5.23 8.79-5.23 1.51 0 2.538 1.66 3.09 2.743-3.09 4.847-7.145 5.8-12.775 6.44-1.236.125-2.472.317-3.777.317-.822 0-2.674-.51-3.43-.828-7.073-2.933-9.202-9.88-10.44-16.382 1.306-3.76.69-9.816 5.976-11.028l3.982-3.698c.41.383.96.572 1.512.572 1.373 0 2.677-.636 3.98-.636 1.034 0 1.924.51 2.407 1.277l2.675-1.213c.894.828 2.13 1.47 3.436 1.47.41 0 .822-.07 1.166-.257 3.02 3.248 6.866 6.818 6.866 11.41 0 .7-.07 1.466-.205 2.103m-9.958-9.816c-.754-.512-1.784-.83-2.748-.83-1.92 0-3.572 1.084-5.492 1.084-.55 0-1.168-.063-1.72-.254-4.392.572-5.56 4.844-7.273 8.03.41.32.96.64 1.508.64 1.442 0 2.472-1.596 3.778-1.596.618 0 1.097.447 1.374.956 5.08-.634 10.162-1.208 15.24-1.848-.546-1.976-2.952-4.972-4.667-6.182" fill="currentColor" fill-rule="evenodd"/></svg>
