<svg class="logo logo--pangaia" preserveAspectRatio="xMinYMin slice" viewBox="0 0 77 14" xmlns="http://www.w3.org/2000/svg"><path fill="currentColor" d="M16.375 8.459h-3.638l1.82-4.828 1.818 4.828zM16.25 1.18A1.799 1.799 0 0013.935.113c-.483.177-.87.556-1.06 1.037L8.13 13.751h2.622l1.078-2.854h5.466l1.088 2.854h2.624L16.25 1.181z"/><path fill="currentColor" d="M41.089 9.444a1.22 1.22 0 01-1.221-1.221c0-.676.545-1.221 1.22-1.221h6.533a6.999 6.999 0 11-13.997-.003A6.998 6.998 0 0147.18 4.556h-2.715a4.554 4.554 0 00-6.29-1.394 4.555 4.555 0 106.29 6.287l-3.376-.005z"/><path fill="currentColor" d="M32.471 12.467v.07c0 .806-.651 1.459-1.458 1.459a1.508 1.508 0 01-1.169-.583l-5.802-8.8v9.136h-2.444V1.516c0-.841.68-1.519 1.522-1.516.508 0 .978.252 1.259.673l5.654 8.601V.194h2.444l-.006 12.273z"/><path fill="currentColor" d="M4.437 8.46H2.445V2.625h1.992a2.917 2.917 0 010 5.835zm0-8.268H0V13.75h2.445v-2.852h1.992a5.353 5.353 0 000-10.706z"/><path fill="currentColor" d="M54.663 8.459h-3.638l1.82-4.828 1.818 4.828zm-.116-7.278A1.798 1.798 0 0052.233.113a1.792 1.792 0 00-1.058 1.037L46.42 13.751h2.622l1.078-2.854H55.6l1.074 2.854h2.627l-4.754-12.57z"/><path fill="currentColor" d="M62.55.192h-2.445v13.555h2.446V.192z"/><path fill="currentColor" d="M71.624 8.459h-3.64l1.822-4.828 1.818 4.828zm-.128-7.278A1.798 1.798 0 0069.181.113a1.79 1.79 0 00-1.056 1.037l-4.75 12.601h2.611l1.077-2.854h5.481l1.077 2.854h2.61l-4.735-12.57z"/></svg>