<svg class="logo logo--paul-valentine" preserveAspectRatio="xMinYMin slice" viewBox="0 0 63 60" xmlns="http://www.w3.org/2000/svg"><path d="M36.673 57.272L56.817 7.675c1.33-3.27 2.687-6.04 6.095-5.985V0H49.78v1.69h.803c4.073 0 3.935 3.353 2.605 6.705l-14.63 36.907c-2.3-6.068-4.6-12.163-6.927-18.232-2.3.444-4.71.555-7.01.555l12.053 29.647z M24.37 0c6.345 0 11.555.443 15.35 6.096 1.22 1.828 1.83 4.017 1.83 6.539 0 5.624-3.243 9.67-8.535 11.388-2.604.886-5.735.97-8.506.97h-1.025l-1.303-3.38h1.026c2.022-.084 3.13-.223 4.017-.472 3.935-1.136 5.819-4.516 5.819-8.45 0-7.814-5.265-9.255-11.86-9.255H12.29c7.287 18.786 14.408 37.627 21.556 56.468H19.521v-1.718h1.635c4.073 0 4.212-2.576 2.91-5.901C18.44 38.098 12.316 22.333 6.72 8.09 4.947 3.547 3.95 1.607.126 1.718V0H24.37z" fill="currentColor"></path></svg>