<svg class="logo logo--sofasofa" preserveAspectRatio="xMinYMin slice" viewBox="0 0 206 44" xmlns="http://www.w3.org/2000/svg"><path d="M18.015 40.709c-1.72 1.781-4.007 2.645-7.036 2.645-3.202 0-6.752-.864-9.716-2.407C.229 40.424 0 40.25 0 39.845c0-.23.055-.349.174-.688l1.317-3.5c.174-.404.348-.57.568-.57.11 0 .283.056.512.175 3.028 1.663 5.6 2.47 7.777 2.47 2.004 0 3.312-1.202 3.312-2.984 0-1.607-.686-2.186-4.4-3.619-3.66-1.377-4.923-2.121-5.948-3.104-1.482-1.433-2.287-3.39-2.287-5.62 0-5.512 4.227-9.36 10.174-9.36 3.605 0 8.747 1.552 8.747 2.645 0 .175-.055.404-.174.634l-1.427 3.27c-.174.349-.348.514-.568.514-.11 0-.283-.055-.457-.11-2.178-.974-4.172-1.488-5.773-1.488-2.343 0-3.66 1.029-3.66 2.93 0 1.552.631 2.121 3.77 3.325 4.226 1.662 5.434 2.296 6.633 3.444 1.482 1.488 2.342 3.563 2.342 5.86.01 2.451-.96 4.922-2.617 6.64zM36.598 43.354c-7.832 0-12.461-5.621-12.461-15.154 0-4.703 1.088-8.267 3.312-10.967 2.461-2.93 5.26-4.188 9.378-4.188 7.494 0 12.178 5.796 12.178 15.1 0 9.35-4.749 15.209-12.407 15.209zM36.48 18.84c-3.257 0-4.63 2.755-4.63 9.358 0 6.66 1.373 9.36 4.685 9.36 3.376 0 4.749-2.756 4.749-9.295 0-6.787-1.373-9.423-4.804-9.423zM72.162 3.337l-1.025 4.078c-.11.285-.283.515-.512.515-.174 0-.348-.056-.567-.175-1.263-.57-2.288-.808-3.431-.808-1.318 0-2.233.404-2.745 1.203-.403.634-.458 1.148-.458 3.444V14h6.515c.686 0 .97.175.97.57 0 .055-.055.404-.11.57l-.805 3.324c-.174.634-.458.863-1.09.863h-5.489V41.37c0 .863-.11.973-.97.973H57.13c-.86 0-.97-.11-.97-.973V19.327h-4.345c-.97 0-.97 0-.97-1.377v-3.16c0-.633.228-.808.97-.808h4.346v-2.406c0-3.904.512-5.915 1.884-7.633C59.764 1.822 62.162.784 65.31.784c3.486 0 6.972 1.029 6.972 2.067 0 .147 0 .147-.119.486zM95.035 41.342l-4.455 1.782c-.174.11-.513.175-.687.175-.512 0-1.088-1.093-1.72-3.39-2.287 2.352-4.346 3.27-7.32 3.27-5.26 0-8.581-3.389-8.581-8.67 0-5.106 2.744-8.091 8.518-9.24 1.482-.284 3.257-.459 6.404-.514v-1.781c0-3.27-.915-4.308-3.77-4.308-1.72 0-3.888.514-6.404 1.488-.229.11-.457.174-.631.174-.284 0-.458-.174-.567-.569l-1.2-3.444a2.559 2.559 0 01-.109-.634c0-1.203 5.206-2.645 9.78-2.645 4.52 0 7.604 1.488 8.922 4.418.567 1.203.805 2.58.805 4.766v11.71c0 2.526.348 4.189 1.317 6.2.11.23.174.46.174.634-.018.23-.183.459-.476.578zm-15.837-7.237c0 2.241 1.6 3.959 3.66 3.959 1.546 0 2.973-.745 4.345-2.242v-6.318c-5.718.009-8.005 1.276-8.005 4.601zM117.516 40.709c-1.72 1.781-4.007 2.645-7.036 2.645-3.202 0-6.752-.864-9.716-2.407-1.025-.514-1.263-.688-1.263-1.093 0-.23.055-.349.174-.688l1.317-3.5c.174-.404.348-.569.568-.569.109 0 .283.055.512.175 3.028 1.662 5.599 2.47 7.777 2.47 2.004 0 3.312-1.203 3.312-2.985 0-1.607-.686-2.186-4.401-3.618-3.66-1.378-4.922-2.122-5.947-3.105-1.482-1.433-2.287-3.389-2.287-5.62 0-5.511 4.227-9.36 10.174-9.36 3.605 0 8.747 1.553 8.747 2.646 0 .174-.055.404-.174.633l-1.427 3.27c-.174.349-.348.514-.568.514-.109 0-.283-.055-.457-.11-2.178-.974-4.172-1.488-5.773-1.488-2.343 0-3.66 1.029-3.66 2.93 0 1.552.631 2.121 3.769 3.325 4.227 1.662 5.435 2.296 6.634 3.444 1.482 1.488 2.342 3.563 2.342 5.86.009 2.442-.961 4.913-2.617 6.63zM136.099 43.354c-7.832 0-12.461-5.621-12.461-15.154 0-4.703 1.088-8.267 3.312-10.967 2.461-2.93 5.261-4.188 9.378-4.188 7.493 0 12.178 5.796 12.178 15.1 0 9.35-4.749 15.209-12.407 15.209zm-.119-24.513c-3.257 0-4.629 2.755-4.629 9.358 0 6.66 1.372 9.36 4.684 9.36 3.376 0 4.749-2.756 4.749-9.295 0-6.787-1.373-9.423-4.804-9.423zM171.663 3.337l-1.025 4.078c-.11.285-.283.515-.512.515-.174 0-.348-.056-.567-.175-1.263-.57-2.288-.808-3.431-.808-1.318 0-2.233.404-2.745 1.203-.403.634-.458 1.148-.458 3.444V14h6.515c.686 0 .97.175.97.57 0 .055-.055.404-.11.57l-.805 3.324c-.174.634-.458.863-1.089.863h-5.49V41.37c0 .863-.11.973-.97.973h-5.316c-.86 0-.969-.11-.969-.973V19.327h-4.346c-.97 0-.97 0-.97-1.377v-3.16c0-.633.228-.808.97-.808h4.346v-2.406c0-3.904.512-5.915 1.884-7.633 1.72-2.121 4.118-3.159 7.265-3.159 3.486 0 6.972 1.029 6.972 2.067 0 .147 0 .147-.119.486zM194.537 41.342l-4.465 1.782c-.174.11-.513.175-.686.175-.513 0-1.089-1.093-1.721-3.39-2.287 2.352-4.346 3.27-7.319 3.27-5.261 0-8.582-3.389-8.582-8.67 0-5.106 2.745-8.091 8.518-9.24 1.482-.284 3.257-.459 6.404-.514v-1.781c0-3.27-.914-4.308-3.769-4.308-1.72 0-3.889.514-6.405 1.488-.228.11-.457.174-.631.174-.284 0-.458-.174-.567-.569l-1.199-3.444a2.554 2.554 0 01-.11-.634c0-1.203 5.206-2.645 9.781-2.645 4.52 0 7.603 1.488 8.921 4.418.567 1.203.805 2.58.805 4.766v11.71c0 2.526.348 4.189 1.318 6.2.109.23.173.46.173.634-.009.23-.173.459-.466.578zm-15.838-7.237c0 2.241 1.601 3.959 3.66 3.959 1.546 0 2.973-.745 4.346-2.242v-6.318c-5.719.009-8.006 1.276-8.006 4.601zM203.338 8.692h-1.528l-.439-.992c-.165-.367-.302-.625-.43-.8-.128-.164-.256-.275-.375-.32-.119-.047-.375-.074-.567-.074h-.192v2.186h-1.41V3.099h2.398c.457 0 .841.091 1.134.284.293.193.503.414.641.69.128.265.192.523.192.761 0 .285-.055.524-.165.717-.11.193-.219.34-.348.422-.128.083-.256.175-.402.257.183.101.329.23.448.377s.275.432.476.872l.567 1.213zm-2.104-3.83c0-.257-.083-.44-.256-.542-.165-.101-.44-.156-.824-.156h-.357v1.35h.366c.412 0 .696-.046.842-.138.156-.082.229-.257.229-.514z" fill="currentColor" /><path d="M200.694 1.657c2.37 0 4.301 1.937 4.301 4.316 0 2.379-1.931 4.317-4.301 4.317-2.369 0-4.3-1.938-4.3-4.317 0-2.379 1.931-4.316 4.3-4.316zm0-1.01c-2.927 0-5.306 2.387-5.306 5.326 0 2.94 2.379 5.327 5.306 5.327 2.928 0 5.307-2.388 5.307-5.327S203.622.646 200.694.646z" fill="currentColor" /></svg>