<svg class="logo logo--sons" width="104" height="33" fill="none" xmlns="http://www.w3.org/2000/svg"><path d="M0 23.72h6.4c1.444 2.647 4.473 3.85 8.082 3.85 4.041 0 6.736-1.636 6.736-4.137 0-2.31-1.635-3.465-5.39-3.85l-5.486-.529c-6.64-.626-9.431-4.33-9.431-9.046C.91 4.137 5.818 0 13.614 0c7.94 0 12.607 4.668 14.1 9.48h-6.4c-1.06-2.358-4.378-3.85-7.796-3.85-4.187 0-6.304 1.972-6.304 4.187 0 2.116 1.732 3.37 4.573 3.656l5.87.576c6.161.627 9.865 4.137 9.865 9.142 0 5.197-4.426 10.008-13.04 10.008-8.42 0-12.846-4.137-14.482-9.48v.001zm54.248-2.55c0 6.88-5.342 12.03-12.413 12.03-7.071 0-12.414-5.15-12.414-12.03 0-6.927 5.34-12.076 12.414-12.076 7.073 0 12.413 5.149 12.413 12.077v-.001zm-18.767 0c0 3.803 2.742 6.448 6.351 6.448s6.352-2.648 6.352-6.447c0-3.85-2.743-6.495-6.352-6.495-3.608 0-6.352 2.644-6.352 6.495l.001-.001zm44.173-2.357v13.762h-6.062V19.92c0-3.271-1.83-5.244-5.34-5.244-3.032 0-5.677 2.358-5.677 6.304v11.595h-6.062V9.718h6.062v1.732c1.25-1.394 3.85-2.358 6.927-2.358 5.964.002 10.152 3.659 10.152 9.72v.001zm17.899-2.358c-.913-1.636-2.838-2.358-5.581-2.358-2.6 0-4.188.866-4.188 2.262 0 1.25 1.299 1.83 3.657 2.021l4.137.337c5.148.433 8.229 2.55 8.229 6.928s-3.946 7.554-10.683 7.554c-6.736 0-10.971-2.838-12.076-7.844h6.447c.722 1.973 2.934 2.839 6.11 2.839 2.31 0 4.137-.722 4.137-2.164 0-1.299-1.25-1.925-3.56-2.167l-4.52-.43c-5.197-.528-7.94-2.647-7.94-6.784 0-4.427 3.898-7.555 10.393-7.555 6.832 0 10.635 2.934 11.885 7.364h-6.447v-.003z" fill="currentColor"/></svg>
