<svg class="logo logo--this-works" preserveAspectRatio="xMinYMin slice" viewBox="0 0 172 42" xmlns="http://www.w3.org/2000/svg">
  <path d="M6.846 0h.409v8.554h5.858v.604H7.255v12.748c0 1.912.17 3.153.51 3.79.341.638 1.022.94 2.078.94 1.226 0 2.112-.47 2.589-1.443.476-.838.851-2.482 1.09-4.965l.034-.369h.51v.537c0 2.046-.272 3.657-.817 4.764-.817 1.677-2.316 2.516-4.53 2.516a5.74 5.74 0 01-2.725-.671c-.817-.436-1.396-1.007-1.703-1.711a5.746 5.746 0 01-.476-2.315V9.16H0V8.62c2.35-.134 4.019-.805 5.04-2.046.954-1.107 1.533-3.153 1.772-6.139L6.846 0z" fill="currentColor"></path>
  <path d="M21.321 0v14.358c.851-2.046 1.737-3.523 2.725-4.428 1.362-1.242 3.031-1.879 4.973-1.879 1.873 0 3.303.57 4.325 1.711.51.57.817 1.14.954 1.778.136.637.204 1.811.204 3.556v8.487c0 1.208.238 2.013.715 2.415.477.403 1.499.671 3.1.805v.37H27.145v-.403c1.601-.134 2.657-.403 3.1-.805.476-.403.715-1.208.715-2.416v-8.252c0-2.281-.068-3.623-.17-4.025-.341-1.41-1.26-2.114-2.793-2.114-1.635 0-3.066.705-4.224 2.08-1.021 1.174-1.737 2.65-2.111 4.428-.239 1.107-.34 2.852-.34 5.233v2.684c0 1.241.238 2.013.68 2.415.443.37 1.499.638 3.1.805l-.034.37H14.066v-.403c1.601-.134 2.657-.403 3.1-.805.477-.403.715-1.208.715-2.416V4.193c0-1.442-.17-2.314-.545-2.616-.374-.302-1.464-.537-3.27-.671V.47h.103c3.065 0 5.381-.135 6.948-.436L21.32 0zM46.934 8.152l.204-.034V23.55c0 1.208.239 2.013.716 2.416.477.402 1.498.67 3.1.805v.402h-11.07v-.402c1.6-.134 2.656-.403 3.1-.805.476-.403.714-1.208.714-2.416V12.244c0-1.375-.204-2.247-.579-2.55-.374-.335-1.464-.536-3.235-.67v-.436h.17c1.43-.034 3.747-.168 6.88-.436zM45.572.772c.579 0 1.055.2 1.464.603.409.403.613.906.613 1.476a2.01 2.01 0 01-.613 1.476 1.996 1.996 0 01-1.464.604c-.58 0-1.09-.201-1.499-.604-.409-.402-.647-.905-.647-1.476 0-.57.204-1.073.613-1.476.409-.402.92-.603 1.533-.603zM65.666 8.286h.41v6.81h-.41c-.34-2.046-1.055-3.623-2.145-4.797-1.09-1.14-2.453-1.745-4.053-1.745-1.124 0-2.078.302-2.827.906-.75.604-1.124 1.342-1.124 2.18 0 .873.34 1.577 1.021 2.047.682.47 2.214 1.107 4.564 1.912 2.112.704 3.509 1.308 4.19 1.71 1.43.907 2.111 2.282 2.111 4.16 0 1.745-.715 3.188-2.111 4.395-1.397 1.208-3.134 1.812-5.143 1.812-1.771 0-3.338-.47-4.666-1.376l-1.329-.905c-.102-.067-.238-.135-.34-.135-.239 0-.443.269-.647.772l-.205.57-.306.973h-.443v-8.353h.443c1.498 5.3 4.019 7.95 7.527 7.95 1.26 0 2.316-.369 3.201-1.14.886-.772 1.329-1.677 1.329-2.784 0-1.074-.34-1.845-.988-2.382-.647-.537-2.146-1.174-4.496-1.946-1.941-.637-3.338-1.208-4.121-1.677-1.533-.906-2.282-2.147-2.282-3.724 0-1.543.647-2.851 1.907-3.891s2.827-1.577 4.7-1.577c1.533 0 2.93.403 4.258 1.174.545.336.885.47 1.022.47.34 0 .647-.47.953-1.41z" fill="currentColor"></path>
  <path d="M88.01 27.575l-4.973-13.318-4.462 13.318h-1.362l-5.688-15.062c-.545-1.443-1.022-2.348-1.397-2.717-.374-.37-1.192-.638-2.384-.806v-.436h9.503v.436c-1.771.202-2.691.738-2.691 1.644 0 .336.17 1.007.545 2.013l4.087 11.003 3.406-10.533-.34-1.208c-.341-1.14-.716-1.912-1.159-2.248-.442-.369-1.192-.57-2.282-.67v-.437h9.741v.436c-1.192.135-2.01.302-2.418.504-.408.2-.613.536-.613.973 0 .268.205.972.647 2.146l3.917 11.004 3.338-8.957c.51-1.342.75-2.45.75-3.321 0-.772-.24-1.342-.716-1.678-.477-.335-1.328-.57-2.555-.704V8.52h8.175v.436c-1.397.235-2.35.637-2.861 1.241-.511.604-1.192 2.046-2.078 4.361l-4.836 12.982H88.01v.034zM106.742 8.051c2.486 0 4.7.973 6.607 2.952 1.908 1.98 2.861 4.26 2.861 6.877 0 2.583-.953 4.864-2.861 6.844-1.907 1.979-4.121 2.952-6.607 2.952-2.486 0-4.7-.973-6.608-2.952-1.907-1.98-2.86-4.26-2.86-6.844 0-2.616.953-4.898 2.86-6.877 1.908-1.979 4.088-2.952 6.608-2.952zm0 19.122c1.975 0 3.372-.705 4.223-2.147.852-1.443 1.261-3.825 1.261-7.146 0-3.32-.409-5.736-1.261-7.179-.851-1.442-2.248-2.147-4.223-2.147-1.941 0-3.338.705-4.189 2.147-.852 1.443-1.295 3.825-1.295 7.18 0 3.32.443 5.668 1.295 7.111.817 1.476 2.213 2.18 4.189 2.18zM123.669 8.118v4.931c1.056-3.287 2.896-4.93 5.518-4.93 1.124 0 2.044.301 2.725.871a2.85 2.85 0 011.056 2.248c0 .67-.205 1.241-.613 1.677-.409.47-.92.671-1.533.671-.579 0-1.09-.201-1.499-.604-.408-.402-.647-.905-.647-1.51 0-.603.307-1.173.92-1.71.136-.1.204-.201.204-.335 0-.403-.409-.604-1.192-.604-.783 0-1.533.302-2.282.872-.715.57-1.294 1.375-1.669 2.348-.681 1.711-1.022 3.959-1.022 6.743v4.797c0 1.208.273 1.98.784 2.382.511.402 1.635.67 3.338.805v.402h-11.342v-.402c1.601-.134 2.656-.403 3.099-.805.477-.403.715-1.208.715-2.416V12.244c0-1.375-.204-2.247-.647-2.55-.408-.335-1.6-.536-3.508-.67v-.436c1.192 0 2.589-.067 4.224-.168 1.532-.134 2.656-.201 3.371-.302z" fill="currentColor"></path>
  <path d="M146.898 23.08l-4.223-6.642-3.542 3.019v4.126c0 1.208.238 2.013.715 2.415.477.403 1.498.671 3.099.805v.37h-11.069v-.403c1.601-.134 2.657-.403 3.099-.805.477-.403.716-1.208.716-2.416V4.193c0-1.442-.171-2.314-.545-2.616-.375-.302-1.465-.537-3.27-.671V.47h.102c3.031 0 5.347-.135 6.948-.436l.205-.034v18.618l4.461-3.723c2.112-1.745 3.168-3.087 3.168-3.992 0-.973-1.022-1.577-3.1-1.879v-.436h10.218v.436c-1.907.268-3.882 1.275-5.926 2.986l-2.691 2.28 3.406 5.368c.375.604.954 1.51 1.737 2.717 1.158 1.879 2.01 3.053 2.555 3.49.545.435 1.498.737 2.861.905v.402h-10.865v-.402c1.192-.1 2.009-.268 2.418-.436.409-.201.613-.503.613-.906-.034-.436-.375-1.208-1.09-2.348zM170.229 8.286h.409v6.81h-.409c-.341-2.046-1.056-3.623-2.146-4.797-1.09-1.14-2.452-1.745-4.053-1.745-1.124 0-2.078.302-2.827.906-.749.604-1.124 1.342-1.124 2.18 0 .873.341 1.577 1.022 2.047.681.47 2.214 1.107 4.564 1.912 2.112.704 3.508 1.308 4.189 1.71 1.431.907 2.112 2.282 2.112 4.16 0 1.745-.715 3.188-2.112 4.395-1.396 1.208-3.133 1.812-5.143 1.812-1.771 0-3.338-.47-4.666-1.376l-1.328-.905c-.102-.067-.239-.135-.341-.135-.238 0-.443.269-.647.772l-.204.57-.307.973h-.443v-8.353h.443c1.499 5.3 4.019 7.95 7.527 7.95 1.26 0 2.316-.369 3.202-1.14.885-.772 1.328-1.677 1.328-2.784 0-1.074-.34-1.845-.988-2.382-.647-.537-2.145-1.174-4.495-1.946-1.942-.637-3.338-1.208-4.156-1.677-1.532-.906-2.282-2.147-2.282-3.724 0-1.543.648-2.851 1.908-3.891 1.26-1.04 2.827-1.577 4.7-1.577 1.533 0 2.929.403 4.257 1.174.545.336.886.47 1.022.47.375 0 .647-.47.988-1.41z" fill="currentColor"></path>
  <path d="M168.628.034c.75 0 1.363.268 1.908.805.511.536.783 1.174.783 1.912s-.272 1.375-.783 1.912c-.511.537-1.158.805-1.908.805a2.522 2.522 0 01-1.873-.805c-.511-.537-.783-1.174-.783-1.912s.272-1.376.783-1.912c.477-.537 1.124-.805 1.873-.805zm0 5.065a2.16 2.16 0 001.635-.704c.443-.47.681-1.007.681-1.678 0-.67-.238-1.207-.681-1.677-.443-.47-.988-.671-1.635-.671a2.16 2.16 0 00-1.635.704c-.442.47-.681 1.007-.681 1.678a2.4 2.4 0 00.681 1.677c.443.47.988.671 1.635.671zm-.306-2.382h-.307v1.04c0 .134.034.235.068.269.068.033.205.067.443.1v.067h-1.328v-.067c.204-.033.34-.033.374-.1.035-.034.069-.135.069-.269v-1.98a.55.55 0 00-.069-.301c-.034-.034-.17-.067-.374-.1v-.034h1.226c.817 0 1.226.235 1.226.67 0 .403-.34.605-.988.672.307.033.545.1.648.201.102.1.17.302.204.604v.168c.034.234.102.369.238.369.171 0 .273-.202.273-.57v-.068h.068v.067c0 .47-.17.705-.511.705-.341 0-.511-.269-.511-.772 0-.168 0-.302-.034-.369a.385.385 0 00-.238-.268c-.137-.034-.273-.034-.477-.034zm-.307-1.006v.94h.307c.306 0 .545-.034.647-.135.136-.1.204-.268.204-.503 0-.403-.238-.604-.749-.604-.204 0-.307 0-.341.033-.068.034-.068.135-.068.269zM93.63 36.532c0-1.275-.614-1.946-1.976-1.946-1.26 0-2.01.772-2.01 1.912 0 2.617 3.542 1.376 3.542 3.523 0 1.006-.647 1.442-1.566 1.442-.954 0-1.43-.604-1.43-1.51v-.268h-.648v.202c0 1.408.75 2.113 2.112 2.113 1.328 0 2.214-.705 2.214-2.113 0-2.516-3.543-1.342-3.543-3.49 0-.704.477-1.274 1.363-1.274.885 0 1.294.537 1.294 1.409h.647zm-9.81 5.334h.647v-6.24h.034l2.793 6.24h.886v-7.18h-.648v6.24h-.034l-2.793-6.24h-.885v7.18zm-5.586-3.59c0-2.314.647-3.153 1.67-3.153 1.055 0 1.668.839 1.668 3.153 0 2.315-.647 3.154-1.669 3.154-1.056 0-1.669-.839-1.669-3.154zm-.647 0c0 2.583.852 3.69 2.316 3.69 1.465 0 2.316-1.14 2.316-3.69s-.851-3.69-2.316-3.69c-1.464 0-2.316 1.14-2.316 3.69zm-2.282 3.59h.647v-7.18h-.647v7.18zm-3.712 0h.647v-6.642h1.873v-.537H69.72v.537h1.874v6.642zm-7.085-2.013c0 1.51.75 2.113 2.078 2.113 1.328 0 2.078-.637 2.078-2.113v-5.166h-.648v5.166c0 1.073-.476 1.61-1.43 1.61s-1.43-.537-1.43-1.61v-5.166h-.648v5.166zm-4.734 2.013h3.678v-.537h-3.03v-6.642h-.648v7.179zm-5.586-3.59c0-2.314.647-3.153 1.67-3.153 1.021 0 1.668.839 1.668 3.153 0 2.315-.647 3.154-1.669 3.154s-1.669-.839-1.669-3.154zm-.647 0c0 2.583.852 3.69 2.316 3.69 1.465 0 2.316-1.14 2.316-3.69s-.851-3.69-2.316-3.69c-1.464 0-2.316 1.14-2.316 3.69zm-1.498-1.744c0-1.275-.614-1.946-1.976-1.946-1.26 0-2.01.772-2.01 1.912 0 2.617 3.543 1.376 3.543 3.523 0 1.006-.647 1.442-1.567 1.442-.954 0-1.43-.604-1.43-1.51v-.268h-.648v.202c0 1.408.75 2.113 2.112 2.113 1.328 0 2.214-.705 2.214-2.113 0-2.516-3.542-1.342-3.542-3.49 0-.704.477-1.274 1.362-1.274.886 0 1.294.537 1.294 1.409h.648zm-12.807 5.334h.647v-6.24h.034l2.793 6.24h.886v-7.18h-.681v6.24l-2.793-6.24h-.886v7.18zm-2.35 0h.647v-7.18h-.647v7.18zm-5.415 0h.647V39.35l.851-1.14 2.18 3.622h.681l-2.452-4.126 2.214-2.986h-.681l-2.793 3.758h-.034V34.72h-.647v7.146h.034zm-1.567-5.334c0-1.275-.613-1.946-1.976-1.946-1.26 0-2.009.772-2.009 1.912 0 2.617 3.542 1.376 3.542 3.523 0 1.006-.647 1.442-1.567 1.442-.953 0-1.43-.604-1.43-1.51v-.268h-.647v.202c0 1.408.75 2.113 2.111 2.113 1.329 0 2.214-.705 2.214-2.113 0-2.516-3.542-1.342-3.542-3.49 0-.704.477-1.274 1.363-1.274.885 0 1.294.537 1.294 1.409h.647zm-11.75-1.275h1.192c1.192 0 1.566.537 1.566 1.41 0 .938-.613 1.408-1.635 1.408h-1.123v-2.818zm-.648 6.609h.648v-3.288h1.226c1.158 0 1.396.403 1.43 1.678l.034.603c0 .37.034.738.204 1.007h.75c-.239-.269-.307-.671-.307-1.04l-.034-.772c-.034-1.107-.34-1.61-1.26-1.71v-.034c.954-.168 1.328-.94 1.328-1.812 0-1.107-.68-1.811-1.873-1.811h-2.18v7.179h.034zm-2.111 0h.647v-7.18h-.647v3.054h-2.827v-3.053h-.647v7.179h.647v-3.59h2.827v3.59zm-8.379-2.382L9.23 35.76h.034v3.724H7.016zm2.214 2.382h.613v-1.812h.851v-.537h-.851v-4.73H9.23L6.47 39.45v.604h2.793v1.812H9.23zm-6.948-4.864c.034-1.175.51-1.711 1.328-1.711.75 0 1.26.503 1.26 1.442 0 .671-.272 1.174-.987 1.778l-.784.637c-.953.806-1.498 1.577-1.498 2.751h3.985v-.536H2.282c.102-.738.51-1.208 1.26-1.812l.783-.637c.92-.738 1.192-1.342 1.192-2.18 0-1.343-.885-1.913-1.873-1.913-1.362 0-2.01.839-2.043 2.214h.68v-.033z" fill="currentColor"></path>
</svg>