<svg class="logo logo--tp-toys" xmlns="http://www.w3.org/2000/svg" preserveAspectRatio="xMinYMin slice" viewBox="0 0 53 48"><path fill="#CDDE00" d="M0 9.434c0-2.277 1.454-3.291 4.382-2.086C10.39 9.835 15.957 9.147 24.663 5.11 34.345.651 42.304-1.645 48.121 1.36 51.508 3.1 53 6.468 53 9.816V37.81c0 2.277-1.454 3.29-4.382 2.085-6.008-2.487-11.575-1.798-20.281 2.239-9.663 4.477-17.622 6.754-23.439 3.77C1.492 44.141 0 40.773 0 37.425V9.434z"/><path fill="#008AAB" d="M32.967 15.002c-.612-.708-1.665-.919-2.487-.268-1.76 1.416-3.56 2.143-5.377 2.583.345-.46.593-1.034.67-1.665a3.387 3.387 0 00-.23-1.645 3.231 3.231 0 00-2.832-3.157 3.114 3.114 0 00-2.449.765 3.771 3.771 0 00-2.104 2.947c-.173 1.434.516 2.774 1.645 3.54-2.009.076-3.788-.135-5.415-.613-.976-.287-1.99.153-2.372 1.014-.364.861.019 1.933.86 2.334 2.125 1.014 4.612 1.588 7.29 1.608.517 5.53 3.1 10.753 6.583 13.7 1.129.956 2.87.803 3.826-.326.957-1.129.861-2.908-.248-3.865-2.373-2.01-3.942-5.893-4.19-10.409 2.601-.823 4.744-2.162 6.62-4.114.67-.707.803-1.702.21-2.43zm-9.758-2.029c.86.096 1.473.88 1.378 1.722a1.564 1.564 0 01-1.723 1.378 1.564 1.564 0 01-1.377-1.722c.096-.861.88-1.492 1.722-1.378zm-2.334 1.301a2.162 2.162 0 001.492 2.316c-.115 0-.21 0-.325-.02a2.791 2.791 0 01-1.55-.727 1.8 1.8 0 01-.287-1.014c0-.42.134-.822.363-1.129a2.38 2.38 0 01.919-.707 2.135 2.135 0 00-.612 1.281zm1.11 2.794a3.155 3.155 0 002.965-1.34 2.483 2.483 0 01-2.736 2.029 2.48 2.48 0 01-1.99-1.493c.478.44 1.072.727 1.76.804zm.669-5.74c.976.115 1.78.727 2.162 1.569a3.394 3.394 0 00-1.99-.976 3.285 3.285 0 00-3.119 1.435 2.726 2.726 0 012.947-2.028zM18.559 14.6a3.281 3.281 0 01.861-1.875c-.134.306-.23.612-.268.956-.038.307-.019.613.02.9-.02.095-.039.191-.058.306a3.373 3.373 0 001.378 3.138 3.364 3.364 0 01-1.933-3.425z"/><path fill="#008AAB" d="M44.562 13.547c-.134 1.78-1.703 3.1-3.482 2.966-1.78-.134-3.1-1.703-2.966-3.482.134-1.78 1.703-3.1 3.482-2.966a3.21 3.21 0 012.966 3.482zm-2.488-6.926c-1.396-.115-2.85.134-3.998.765-.747-1.243-2.373-1.569-3.464-.918-1.09.65-1.626 1.856-.784 3.1 2.564 3.884 2.028 7.557 1.454 9.796-.784 2.985-1.626 4.286-3.846 5.568-1.167.67-1.53 1.99-.956 3.119.573 1.128 1.932 1.568 3.214 1.071 2.105-.823 5.625-5.472 6.333-9.012.306.057.612.115.919.134 3.788.306 6.85-2.277 7.232-6.218.325-3.77-2.679-7.156-6.104-7.405z"/><path fill="#008AAB" d="M41.75 15.824a2.782 2.782 0 01-2.565-3.023 2.752 2.752 0 011.435-2.22 2.806 2.806 0 00-2.066 2.488 2.82 2.82 0 002.564 3.023c.574.038 1.129-.076 1.588-.344a3.086 3.086 0 01-.957.076z"/></svg>