<?xml version="1.0" encoding="utf-8"?>
<!-- Generator: Adobe Illustrator 17.0.0, SVG Export Plug-In . SVG Version: 6.00 Build 0)  -->
<!DOCTYPE svg PUBLIC "-//W3C//DTD SVG 1.1//EN" "http://www.w3.org/Graphics/SVG/1.1/DTD/svg11.dtd">
<svg version="1.1" id="Layer_1" xmlns="http://www.w3.org/2000/svg" xmlns:xlink="http://www.w3.org/1999/xlink" x="0px" y="0px"
	 width="50px" height="50px" viewBox="0 0 50 50" enable-background="new 0 0 50 50" xml:space="preserve">


<path fill="none" stroke="#000000" stroke-width="2" stroke-linecap="round" stroke-linejoin="round" stroke-miterlimit="10" d="
	M1.457,38.326c0,0-0.429,0.207-0.429,0.807l0.282,7.256c0,0,0,0.524,0.669,0.524c0.431,0,2.154,0.06,2.154,0.06
	s0.374-0.053,0.374-0.267c0-0.213,0.005-1.975,0.005-1.975s-0.031-0.559,0.931-0.495c0.873,0.058,0.96,0.64,0.96,0.64
	S6.45,46.092,6.45,46.36c0,0.267-0.107,0.64,0.427,0.64c0.534,0,4.498-0.004,4.498-0.004s0.48-0.105,0.48-0.427
	c0-0.318,0-2.85,0-2.85s-0.16-0.587,0.32-0.427c0.481,0.16,8.749,0.805,8.749,0.805s0.431-0.011,0.466,0.4
	c0.033,0.387-0.03,1.262-0.03,1.262s0.098,0.256,0.467,0.338c0.524,0.116,2.386,0.32,2.386,0.32s0.59-0.049,0.59-0.262
	c0-0.215,0.16-0.908,0.16-0.908s-0.034-0.251,0.501-0.198c0.534,0.055,1.07-0.009,1.07-0.009s0.427,0.107,0.427,0.322
	c0,0.213,0.16,1.015,0.16,1.015s0,0.495,0.57,0.457c0.22-0.015,2.457,0.107,2.457,0.107s0.291-0.029,0.32-0.408
	c0.023-0.291,0-0.875,0-0.875s0.076-0.464,0.349-0.464c0.524,0,2.783-0.04,3.056-0.009c0.273,0.031,0.524,0.262,0.524,0.262
	l0.102,1.261c0,0,0.178,0.209,0.393,0.262c0.214,0.055,2.357-0.175,2.357-0.175s0.328-0.564,0.274-0.669
	c-0.053-0.107,0.481-1.23,0.481-1.23s0.054-0.107,0.321-0.16c0.267-0.053,1.612-0.375,1.612-0.375s0.32,0.056,0.427,0.162
	c0.107,0.107,0.641,0.962,0.641,0.962s0,0.266,0.214,0.213c0.214-0.053,2.136-0.375,2.136-0.375l0.321-0.427l0.106-1.121
	c0,0,0.053-0.587,0.214-0.587c0.161,0,1.442-0.535,1.442-0.535l0.534,0.053l0.587,0.962c0,0,0.214,0.107,0.374,0.053
	c0.16-0.053,1.869-0.855,1.869-0.855s0.214-0.48,0.161-0.64c-0.054-0.16-0.445-2.376-0.454-2.776C48.505,39.052,47.986,39,47.986,39
	"/>
<path fill="none" stroke="#000000" stroke-width="2" stroke-linecap="round" stroke-linejoin="round" stroke-miterlimit="10" d="
	M34.323,32.151c0.32-2.532-1.844-3.336-4.55-3.831c-1.883-0.344-3.223-0.489-5.151-1.775c-1.928-1.286-2.531-3.171-3.27-7.194
	C20.875,16.75,21,8,21,4.481C21,2.958,18.878,2,16.491,2c-2.386,0-3.69,1.21-5.783,1.75C9.144,4.153,8.105,3.885,5.854,4.346
	C4.292,4.667,4,5.66,4,9.116c0,1.488,0.11,9.024,0,11.699s-0.312,4.958-1.118,6.606c-1.028,2.103-1.905,5.15-1.905,7.945
	c0,2.052,0.458,2.938,0.458,2.938s1.214,0.227,5.394,0.851c1.861,0.278,5.891,0.105,8.676,0.949
	c8.712,2.632,13.902,2.603,20.725,1.943c7.615-0.738,11.794-3.023,11.794-3.023s0.08-2.708-1.086-4.318
	c-1.121-1.55-3.222-2.437-4.914-2.377c-2.991,0.107-2.957,1.481-5.074,0.828C35.645,32.755,34.323,32.151,34.323,32.151z
	 M31.141,38.186c0.915-1.624,2.968-4.342,3.182-6.035"/>
<path fill="none" stroke="#000000" stroke-width="2" stroke-linecap="round" stroke-linejoin="round" stroke-miterlimit="10" d="
	M3.958,24.773c0,0,8.207,3.551,11.089,10.361"/>
<circle cx="17.713" cy="6.874" r="1.204"/>
<circle cx="17.633" cy="12.155" r="1.204"/>
<circle cx="17.793" cy="17.115" r="1.205"/>
<circle cx="18.51" cy="22.608" r="1.204"/>
<circle cx="20.914" cy="26.957" r="1.204"/>
<circle cx="24.68" cy="29.68" r="1.204"/>
<circle cx="29.396" cy="31.198" r="1.204"/>
</svg>
