<?xml version="1.0" encoding="utf-8"?>
<!-- Generator: Adobe Illustrator 18.1.1, SVG Export Plug-In . SVG Version: 6.00 Build 0)  -->
<svg version="1.1" id="Layer_1" xmlns="http://www.w3.org/2000/svg" xmlns:xlink="http://www.w3.org/1999/xlink" x="0px" y="0px"
	 viewBox="0 0 50 50" enable-background="new 0 0 50 50" xml:space="preserve">
<path fill="none" stroke="#000000" stroke-width="2" stroke-miterlimit="10" d="M45,37H5c-1.1,0-2-0.9-2-2V5c0-1.1,0.9-2,2-2h40
	c1.1,0,2,0.9,2,2v30C47,36.1,46.1,37,45,37z"/>
<rect x="7" y="7" fill="none" stroke="#000000" stroke-width="2" stroke-miterlimit="10" width="36" height="26"/>
<polyline fill="none" stroke="#000000" stroke-width="2" stroke-miterlimit="10" points="20,12 12,20 20,28 "/>
<polyline fill="none" stroke="#000000" stroke-width="2" stroke-miterlimit="10" points="30,12 38,20 30,28 "/>
<polyline fill="none" stroke="#000000" stroke-width="2" stroke-linejoin="round" stroke-miterlimit="10" points="20,41 10,41 5,47 
	45,47 40,41 30,41 "/>
<rect x="20" y="37" fill="none" stroke="#000000" stroke-width="2" stroke-miterlimit="10" width="10" height="6"/>
</svg>
