<svg width="16" height="16" fill="none" xmlns="http://www.w3.org/2000/svg"><path fill-rule="evenodd" clip-rule="evenodd" d="M10 14a4 4 0 100-8 4 4 0 000 8zm0 1a5 5 0 100-10 5 5 0 000 10z" fill="currentColor"/><path fill-rule="evenodd" clip-rule="evenodd" d="M9.646 10.354l-9-9 .708-.708 9 9-.708.708zM9.5 7V5.5h1V7h-1zM7 10.5H5.5v-1H7v1zm6-1h1.5v1H13v-1zM10.5 13v1.5h-1V13h1z" fill="currentColor"/><path fill-rule="evenodd" clip-rule="evenodd" d="M11.768 7.525l1.06-1.06.708.707-1.061 1.06-.707-.707zm-4.243.707l-1.06-1.06.707-.707 1.06 1.06-.707.707zm4.95 3.536l1.06 1.06-.707.708-1.06-1.061.707-.707zm-4.243.707l-1.06 1.06-.708-.707 1.061-1.06.707.707z" fill="currentColor"/></svg>