<svg class="icon__light-mode" width="16" height="16" fill="none" xmlns="http://www.w3.org/2000/svg"><path fill-rule="evenodd" clip-rule="evenodd" d="M8 12a4 4 0 100-8 4 4 0 000 8zm0 1A5 5 0 108 3a5 5 0 000 10zM7.5 2V0h1v2h-1zM2 8.5H0v-1h2v1zm14 0h-2v-1h2v1zM7.5 16v-2h1v2h-1zM11.89 3.404l1.413-1.414.707.707-1.414 1.414-.707-.707zm-8.486.707L1.99 2.697l.707-.707L4.11 3.404l-.707.707zm9.9 9.9l-1.415-1.415.707-.707 1.414 1.414-.707.707zM1.99 13.302l1.414-1.414.707.707-1.414 1.414-.707-.707z" fill="currentColor"/></svg>