<svg width="16" height="16" fill="none" xmlns="http://www.w3.org/2000/svg"><path fill-rule="evenodd" clip-rule="evenodd" d="M9.84 4.794c.03.35.06.701.06.992 0 .706-.077 1.13-.158 1.585a26.77 26.77 0 00-.05.283c-.094.565-.192 1.335-.192 2.918 0 1.062.367 1.5.736 1.707.42.236.987.252 1.502.19l.03-.004h.03c.28 0 .599-.04.85-.246.233-.191.516-.62.516-1.647 0-.74.089-1.29.231-1.745.14-.448.328-.785.493-1.08l.005-.01c.167-.3.31-.56.418-.904.107-.342.185-.79.185-1.446l.002-.523c.003-.491.005-.92-.018-1.31-.03-.521-.105-.9-.247-1.182-.244-.482-.794-.872-2.502-.872-.736 0-1.159.179-1.413.4-.256.224-.409.55-.484.981-.077.436-.067.934-.03 1.45.01.15.023.306.036.463zm-.179-3.647C10.151.72 10.835.5 11.731.5c1.8 0 2.882.407 3.394 1.421.236.466.32 1.01.354 1.573.025.425.022.902.02 1.402-.002.162-.003.326-.003.491 0 .74-.088 1.29-.23 1.745-.14.448-.328.784-.493 1.08l-.006.01c-.167.3-.31.56-.417.904-.107.342-.186.79-.186 1.446 0 1.206-.338 1.974-.882 2.42-.511.42-1.105.47-1.453.473-.572.067-1.388.075-2.082-.313-.758-.425-1.247-1.25-1.247-2.58 0-1.633.102-2.458.207-3.083l.053-.307c.079-.443.14-.783.14-1.396 0-.249-.024-.528-.052-.85-.014-.167-.029-.345-.042-.536-.037-.531-.056-1.13.043-1.692.099-.565.325-1.137.812-1.561zM6.16 6.733c-.03.344-.06.692-.06.978 0 .697.077 1.117.158 1.564l.05.278c.094.555.192 1.312.192 2.87 0 1.064-.33 1.524-.68 1.755-.395.26-.943.322-1.551.322-.224 0-.574-.07-.863-.334-.277-.252-.57-.747-.57-1.743 0-.73-.089-1.272-.232-1.722-.14-.442-.329-.775-.493-1.066l-.006-.01c-.167-.296-.31-.55-.417-.887-.106-.336-.184-.774-.184-1.42l-.002-.515c-.003-.483-.005-.905.018-1.288.03-.512.105-.883.246-1.158.242-.471.792-.857 2.503-.857.738 0 1.162.177 1.416.395.255.219.407.538.482.96.076.426.066.915.03 1.422-.01.148-.024.301-.037.456zm.176-3.597c-.49-.42-1.173-.636-2.067-.636-1.796 0-2.879.4-3.393 1.4-.236.461-.321.998-.354 1.554a21.85 21.85 0 00-.02 1.382l.002.483c0 .729.088 1.272.231 1.722.14.442.329.774.493 1.065l.006.011c.167.295.31.55.417.887.107.335.185.774.185 1.419 0 1.203.362 1.996.896 2.482a2.307 2.307 0 001.537.595c.622 0 1.44-.05 2.103-.488.708-.469 1.128-1.297 1.128-2.59 0-1.607-.102-2.42-.207-3.037a30.099 30.099 0 00-.053-.302 6.632 6.632 0 01-.14-1.372c0-.244.024-.518.052-.835.014-.164.029-.34.042-.528.037-.523.056-1.114-.043-1.669-.1-.56-.327-1.124-.815-1.543z" fill="currentColor"/></svg>