<svg version="1" xmlns="http://www.w3.org/2000/svg" width="682.667" height="682.667" viewBox="0 0 512.000000 512.000000"><path d="M276.9.5c-.2.1-3.9.6-8.2 1-4.3.3-8.6.8-9.5.9-.9.2-4.4.7-7.7 1-3.3.4-7.6 1.1-9.5 1.6-1.9.5-4.7 1.1-6.2 1.4-11.6 2-44.3 12.6-49.8 16.1-.8.5-5 2.6-9.2 4.7-10.4 5-35.1 21-39.8 25.8-.3.3-3.6 3.2-7.5 6.5-17.6 15-32.8 32.8-45.4 52.7-3.3 5.4-6.1 10-6.1 10.2 0 .3-1.3 2.7-2.8 5.3-3.6 6.2-10.2 21.2-14.8 33.9-7.7 21.3-13.2 45.8-16.1 72.1-1.5 13.5-.6 66.4 1.2 69.3.2.3.6 3 1 6 .7 6 2.7 15.7 5.5 27.5 2.9 11.9 12.1 38.7 14.1 41.2.6.7.9 1.3.5 1.3-.9 0 7.7 16.9 13.2 25.9 8.7 14.4 17.4 25.3 30.3 38.1 12.4 12.3 15.2 14.6 34.4 28.5 5.6 4.1 22.1 13.2 32.1 17.8 15 6.9 41 14.9 55.4 17.1 1.9.3 6.2 1 9.5 1.6 3.3.5 8.7 1.3 12 1.6 3.3.3 7.1.8 8.5 1 1.4.3 13.6.7 27.1 1l24.6.4 7.4-3.1c4.1-1.7 9.2-3.9 11.4-4.9 4.6-2 85.3-36.2 114.9-48.6 11-4.7 20.1-8.6 20.3-8.8.3-.3-1.8-7.6-3.4-11.6-.3-.8-.7-2-.8-2.5-.2-.6-2.8-8.2-5.8-17s-6.4-18.7-7.5-22c-1.5-4.4-2.6-6-3.9-6-1 0-7 1.6-13.4 3.7-6.3 2-20.9 6.7-32.5 10.3-11.5 3.7-25.6 8.2-31.4 10-5.8 1.8-18.6 5.9-28.5 9l-18 5.7-12-.6c-12.1-.6-13.4-.7-23.5-2.7-37.3-7.4-67.2-31.2-86.9-69.2-3.9-7.5-9.2-19.5-9.7-21.7 0-.3-.3-1.2-.6-2-2.7-7.3-4.1-12-6.3-21.4-2.6-10.8-2.9-12.4-4.1-22.1-.3-2.8-.8-5.3-.9-5.6-.7-1.1-1.8-22.5-1.9-34.9 0-33.8 4.1-63.5 12.9-92.5 9.6-31.7 22.7-54.6 43.1-75.7l7.5-7.7 6.7.5c26 1.8 52.1 7 76.2 15 5.8 1.9 11 3.8 11.6 4.2.9.6 3.8 12.2 9.9 40.2.2.8 1 4.5 1.9 8.1.8 3.7 1.7 7.8 2 9 .2 1.3 2.1 9.6 4.1 18.4 2 8.8 3.8 17.3 4.1 18.9.2 1.6.6 3.1.8 3.3.6.6 78.6.6 79.2 0 .6-.5 6.7-25.5 8.8-35.7 1.6-7.8 2-10.3 3.3-17.9.4-2.5.8-4.8.8-5.1.1-.3.5-3.2 1-6.5.4-3.3.9-6.7 1-7.5.2-.8.6-4.9 1-9s.9-8.6 1.1-10c.3-1.4.7-12.5.9-24.8l.6-22.3-3.2-2.8c-5.1-4.7-28.5-18-43-24.4-20.6-9.2-48.6-16.8-70.9-19.2-3.6-.4-7.4-.9-8.5-1.2-2.4-.6-52.1-1.4-52.6-.8z"/></svg>