<?xml version="1.0" standalone="no"?>
<!DOCTYPE svg PUBLIC "-//W3C//DTD SVG 20010904//EN"
 "http://www.w3.org/TR/2001/REC-SVG-20010904/DTD/svg10.dtd">
<svg version="1.0" xmlns="http://www.w3.org/2000/svg"
 width="512.000000pt" height="512.000000pt" viewBox="0 0 512.000000 512.000000"
 preserveAspectRatio="xMidYMid meet">
<metadata>
Created by potrace 1.11, written by Peter Selinger 2001-2013
</metadata>
<g transform="translate(0.000000,512.000000) scale(0.100000,-0.100000)"
fill="#000000" stroke="none">
<path d="M0 2560 l0 -2560 2560 0 2560 0 0 2560 0 2560 -2560 0 -2560 0 0
-2560z m2205 1245 c205 -43 382 -134 523 -268 l62 -60 0 -229 0 -228 -170 0
c-168 0 -170 0 -175 23 -3 12 -14 80 -25 151 -22 149 -27 156 -130 210 -90 47
-173 66 -300 66 -253 0 -419 -101 -531 -322 -122 -241 -131 -706 -18 -963 109
-250 312 -377 579 -362 146 9 273 50 348 114 31 27 33 33 55 178 l23 150 172
3 172 2 0 -228 0 -229 -57 -55 c-120 -113 -298 -209 -470 -255 -131 -34 -372
-43 -509 -19 -325 56 -590 265 -739 579 -148 312 -154 806 -15 1141 69 166
226 359 369 456 120 81 275 139 423 160 92 13 321 5 413 -15z m1145 -880 c0
-201 3 -365 8 -365 4 0 18 16 31 36 34 49 96 98 167 131 55 26 68 28 184 28
121 0 128 -1 192 -33 125 -61 223 -204 264 -387 27 -118 25 -371 -4 -478 -51
-189 -162 -318 -311 -361 -76 -22 -214 -21 -290 3 -81 25 -155 74 -202 133
l-38 48 -5 -42 c-4 -24 -7 -63 -9 -88 l-2 -45 -57 -3 -58 -3 0 834 c0 932 7
847 -73 847 -23 0 -59 3 -79 6 -38 7 -38 7 -38 55 l0 49 160 0 160 0 0 -365z"/>
<path d="M3644 2640 c-113 -17 -213 -92 -267 -199 l-27 -55 0 -275 0 -276 29
-50 c36 -62 108 -131 166 -156 94 -42 252 -41 334 0 20 11 56 40 80 66 90 97
127 240 118 450 -9 193 -48 314 -132 404 -73 78 -178 110 -301 91z"/>
</g>
</svg>
