<svg width="143" height="33" viewBox="0 0 143 33" xmlns="http://www.w3.org/2000/svg"><path d="M29.37 9.77C27.81 3.595 22.846 0 15.655 0 7.38 0 0 5.716 0 16.498 0 27.284 7.379 33 15.655 33c7.19 0 12.155-3.595 13.715-9.77l-5.532-1.383c-1.278 3.27-3.595 5.62-8.183 5.62-5.108 0-9.413-3.5-9.413-10.969 0-7.466 4.305-10.969 9.413-10.969 4.588 0 6.905 2.353 8.183 5.624L29.37 9.77zM36.507.367v32.266h20.195V27.1H42.658V.367h-6.151zm49.966 0H80.32v20.097c0 4.7-2.03 7.004-6.194 7.004-4.16 0-6.195-2.304-6.195-7.004V.367h-6.148v20.005c0 8.62 5.105 12.628 12.343 12.628 7.237 0 12.346-4.008 12.346-12.628V.367zm26.804 5.486C111.48 2.12 108.124 0 103.725 0c-5.202 0-9.033 3.87-9.033 8.757 0 10.232 13.856 9.17 13.856 14.519 0 2.95-1.749 4.192-4.301 4.192-3.595 0-5.583-3.088-6.575-6.542l-4.968 3.042C93.744 28.897 98.096 33 104.102 33c6.34 0 10.594-3.733 10.594-10.048 0-9.587-14.139-8.85-14.139-14.473 0-1.705 1.37-2.95 3.168-2.95 1.938 0 3.31 1.016 4.588 3.412l4.964-3.088zm8.77-5.486v32.266H143V27.1h-14.804v-8.895h11.491v-5.532h-11.491V5.899h14.33V.367h-20.478z" fill="#555" fill-rule="evenodd"/></svg>